ISO-10303-21;
HEADER;
/* Generated by software containing ST-Developer
 * from STEP Tools, Inc. (www.steptools.com) 
 */

FILE_DESCRIPTION(
/* description */ (''),
/* implementation_level */ '2;1');

FILE_NAME(
/* name */ 'Day01-Lego-Block.step',
/* time_stamp */ '2026-08-24T02:13:03+05:30',
/* author */ (''),
/* organization */ (''),
/* preprocessor_version */ 'ST-DEVELOPER v20.1',
/* originating_system */ 'Autodesk Translation Framework v15.8.0.0',
/* authorisation */ '');

FILE_SCHEMA (('AUTOMOTIVE_DESIGN { 1 0 10303 214 3 1 1 }'));
ENDSEC;

DATA;
#10=MECHANICAL_DESIGN_GEOMETRIC_PRESENTATION_REPRESENTATION('',(#13),#2015);
#11=SHAPE_REPRESENTATION_RELATIONSHIP('SRR','None',#2022,#12);
#12=ADVANCED_BREP_SHAPE_REPRESENTATION('',(#14),#2014);
#13=STYLED_ITEM('',(#2031),#14);
#14=MANIFOLD_SOLID_BREP('Body1',#1109);
#15=SPHERICAL_SURFACE('',#1214,0.2);
#16=SPHERICAL_SURFACE('',#1220,0.2);
#17=SPHERICAL_SURFACE('',#1226,0.2);
#18=SPHERICAL_SURFACE('',#1233,0.2);
#19=FACE_BOUND('',#318,.T.);
#20=FACE_BOUND('',#322,.T.);
#21=FACE_BOUND('',#326,.T.);
#22=FACE_BOUND('',#342,.T.);
#23=FACE_BOUND('',#343,.T.);
#24=FACE_BOUND('',#344,.T.);
#25=FACE_BOUND('',#345,.T.);
#26=FACE_BOUND('',#346,.T.);
#27=FACE_BOUND('',#347,.T.);
#28=FACE_BOUND('',#348,.T.);
#29=FACE_BOUND('',#349,.T.);
#30=FACE_BOUND('',#377,.T.);
#31=FACE_BOUND('',#378,.T.);
#32=FACE_BOUND('',#379,.T.);
#33=FACE_BOUND('',#380,.T.);
#34=FACE_BOUND('',#381,.T.);
#35=FACE_BOUND('',#382,.T.);
#36=FACE_BOUND('',#383,.T.);
#37=FACE_BOUND('',#384,.T.);
#38=FACE_BOUND('',#385,.T.);
#39=FACE_BOUND('',#386,.T.);
#40=FACE_BOUND('',#387,.T.);
#41=FACE_BOUND('',#391,.T.);
#42=PLANE('',#1130);
#43=PLANE('',#1138);
#44=PLANE('',#1146);
#45=PLANE('',#1154);
#46=PLANE('',#1162);
#47=PLANE('',#1170);
#48=PLANE('',#1178);
#49=PLANE('',#1186);
#50=PLANE('',#1194);
#51=PLANE('',#1203);
#52=PLANE('',#1212);
#53=PLANE('',#1242);
#54=PLANE('',#1243);
#55=PLANE('',#1244);
#56=PLANE('',#1247);
#57=PLANE('',#1250);
#58=PLANE('',#1253);
#59=PLANE('',#1257);
#60=PLANE('',#1261);
#61=PLANE('',#1265);
#62=PLANE('',#1269);
#63=PLANE('',#1273);
#64=PLANE('',#1277);
#65=PLANE('',#1281);
#66=PLANE('',#1285);
#67=PLANE('',#1286);
#68=PLANE('',#1287);
#69=PLANE('',#1288);
#70=PLANE('',#1289);
#71=PLANE('',#1290);
#72=PLANE('',#1291);
#73=PLANE('',#1292);
#74=PLANE('',#1293);
#75=LINE('',#1703,#129);
#76=LINE('',#1716,#130);
#77=LINE('',#1729,#131);
#78=LINE('',#1742,#132);
#79=LINE('',#1755,#133);
#80=LINE('',#1768,#134);
#81=LINE('',#1781,#135);
#82=LINE('',#1794,#136);
#83=LINE('',#1807,#137);
#84=LINE('',#1822,#138);
#85=LINE('',#1837,#139);
#86=LINE('',#1853,#140);
#87=LINE('',#1854,#141);
#88=LINE('',#1866,#142);
#89=LINE('',#1867,#143);
#90=LINE('',#1879,#144);
#91=LINE('',#1880,#145);
#92=LINE('',#1882,#146);
#93=LINE('',#1883,#147);
#94=LINE('',#1895,#148);
#95=LINE('',#1896,#149);
#96=LINE('',#1898,#150);
#97=LINE('',#1899,#151);
#98=LINE('',#1901,#152);
#99=LINE('',#1902,#153);
#100=LINE('',#1904,#154);
#101=LINE('',#1905,#155);
#102=LINE('',#1907,#156);
#103=LINE('',#1909,#157);
#104=LINE('',#1913,#158);
#105=LINE('',#1918,#159);
#106=LINE('',#1923,#160);
#107=LINE('',#1930,#161);
#108=LINE('',#1937,#162);
#109=LINE('',#1944,#163);
#110=LINE('',#1951,#164);
#111=LINE('',#1958,#165);
#112=LINE('',#1965,#166);
#113=LINE('',#1972,#167);
#114=LINE('',#1979,#168);
#115=LINE('',#1985,#169);
#116=LINE('',#1987,#170);
#117=LINE('',#1989,#171);
#118=LINE('',#1990,#172);
#119=LINE('',#1993,#173);
#120=LINE('',#1995,#174);
#121=LINE('',#1996,#175);
#122=LINE('',#1999,#176);
#123=LINE('',#2001,#177);
#124=LINE('',#2002,#178);
#125=LINE('',#2004,#179);
#126=LINE('',#2005,#180);
#127=LINE('',#2008,#181);
#128=LINE('',#2010,#182);
#129=VECTOR('',#1308,2.5);
#130=VECTOR('',#1325,2.5);
#131=VECTOR('',#1342,2.5);
#132=VECTOR('',#1359,2.5);
#133=VECTOR('',#1376,2.5);
#134=VECTOR('',#1393,2.5);
#135=VECTOR('',#1410,2.5);
#136=VECTOR('',#1427,2.5);
#137=VECTOR('',#1444,3.15);
#138=VECTOR('',#1463,3.15);
#139=VECTOR('',#1482,3.15);
#140=VECTOR('',#1501,10.);
#141=VECTOR('',#1502,10.);
#142=VECTOR('',#1515,10.);
#143=VECTOR('',#1516,10.);
#144=VECTOR('',#1529,10.);
#145=VECTOR('',#1530,10.);
#146=VECTOR('',#1533,10.);
#147=VECTOR('',#1534,10.);
#148=VECTOR('',#1547,10.);
#149=VECTOR('',#1548,10.);
#150=VECTOR('',#1551,10.);
#151=VECTOR('',#1552,10.);
#152=VECTOR('',#1555,10.);
#153=VECTOR('',#1556,10.);
#154=VECTOR('',#1559,10.);
#155=VECTOR('',#1560,10.);
#156=VECTOR('',#1563,10.);
#157=VECTOR('',#1566,10.);
#158=VECTOR('',#1571,2.15);
#159=VECTOR('',#1578,2.15);
#160=VECTOR('',#1585,2.15);
#161=VECTOR('',#1594,2.5);
#162=VECTOR('',#1603,2.5);
#163=VECTOR('',#1612,2.5);
#164=VECTOR('',#1621,2.5);
#165=VECTOR('',#1630,2.5);
#166=VECTOR('',#1639,2.5);
#167=VECTOR('',#1648,2.5);
#168=VECTOR('',#1657,2.5);
#169=VECTOR('',#1664,10.);
#170=VECTOR('',#1665,10.);
#171=VECTOR('',#1666,10.);
#172=VECTOR('',#1667,10.);
#173=VECTOR('',#1670,10.);
#174=VECTOR('',#1671,10.);
#175=VECTOR('',#1672,10.);
#176=VECTOR('',#1675,10.);
#177=VECTOR('',#1676,10.);
#178=VECTOR('',#1677,10.);
#179=VECTOR('',#1680,10.);
#180=VECTOR('',#1681,10.);
#181=VECTOR('',#1686,10.);
#182=VECTOR('',#1689,10.);
#183=CYLINDRICAL_SURFACE('',#1128,2.5);
#184=CYLINDRICAL_SURFACE('',#1136,2.5);
#185=CYLINDRICAL_SURFACE('',#1144,2.5);
#186=CYLINDRICAL_SURFACE('',#1152,2.5);
#187=CYLINDRICAL_SURFACE('',#1160,2.5);
#188=CYLINDRICAL_SURFACE('',#1168,2.5);
#189=CYLINDRICAL_SURFACE('',#1176,2.5);
#190=CYLINDRICAL_SURFACE('',#1184,2.5);
#191=CYLINDRICAL_SURFACE('',#1192,3.15);
#192=CYLINDRICAL_SURFACE('',#1201,3.15);
#193=CYLINDRICAL_SURFACE('',#1210,3.15);
#194=CYLINDRICAL_SURFACE('',#1218,0.2);
#195=CYLINDRICAL_SURFACE('',#1224,0.2);
#196=CYLINDRICAL_SURFACE('',#1230,0.2);
#197=CYLINDRICAL_SURFACE('',#1232,0.2);
#198=CYLINDRICAL_SURFACE('',#1237,0.2);
#199=CYLINDRICAL_SURFACE('',#1239,0.2);
#200=CYLINDRICAL_SURFACE('',#1240,0.2);
#201=CYLINDRICAL_SURFACE('',#1241,0.2);
#202=CYLINDRICAL_SURFACE('',#1245,2.15);
#203=CYLINDRICAL_SURFACE('',#1248,2.15);
#204=CYLINDRICAL_SURFACE('',#1251,2.15);
#205=CYLINDRICAL_SURFACE('',#1254,1.01);
#206=CYLINDRICAL_SURFACE('',#1258,1.01);
#207=CYLINDRICAL_SURFACE('',#1262,1.01);
#208=CYLINDRICAL_SURFACE('',#1266,1.01);
#209=CYLINDRICAL_SURFACE('',#1270,1.01);
#210=CYLINDRICAL_SURFACE('',#1274,1.01);
#211=CYLINDRICAL_SURFACE('',#1278,1.01);
#212=CYLINDRICAL_SURFACE('',#1282,1.01);
#213=FACE_OUTER_BOUND('',#291,.T.);
#214=FACE_OUTER_BOUND('',#292,.T.);
#215=FACE_OUTER_BOUND('',#293,.T.);
#216=FACE_OUTER_BOUND('',#294,.T.);
#217=FACE_OUTER_BOUND('',#295,.T.);
#218=FACE_OUTER_BOUND('',#296,.T.);
#219=FACE_OUTER_BOUND('',#297,.T.);
#220=FACE_OUTER_BOUND('',#298,.T.);
#221=FACE_OUTER_BOUND('',#299,.T.);
#222=FACE_OUTER_BOUND('',#300,.T.);
#223=FACE_OUTER_BOUND('',#301,.T.);
#224=FACE_OUTER_BOUND('',#302,.T.);
#225=FACE_OUTER_BOUND('',#303,.T.);
#226=FACE_OUTER_BOUND('',#304,.T.);
#227=FACE_OUTER_BOUND('',#305,.T.);
#228=FACE_OUTER_BOUND('',#306,.T.);
#229=FACE_OUTER_BOUND('',#307,.T.);
#230=FACE_OUTER_BOUND('',#308,.T.);
#231=FACE_OUTER_BOUND('',#309,.T.);
#232=FACE_OUTER_BOUND('',#310,.T.);
#233=FACE_OUTER_BOUND('',#311,.T.);
#234=FACE_OUTER_BOUND('',#312,.T.);
#235=FACE_OUTER_BOUND('',#313,.T.);
#236=FACE_OUTER_BOUND('',#314,.T.);
#237=FACE_OUTER_BOUND('',#315,.T.);
#238=FACE_OUTER_BOUND('',#316,.T.);
#239=FACE_OUTER_BOUND('',#317,.T.);
#240=FACE_OUTER_BOUND('',#319,.T.);
#241=FACE_OUTER_BOUND('',#320,.T.);
#242=FACE_OUTER_BOUND('',#321,.T.);
#243=FACE_OUTER_BOUND('',#323,.T.);
#244=FACE_OUTER_BOUND('',#324,.T.);
#245=FACE_OUTER_BOUND('',#325,.T.);
#246=FACE_OUTER_BOUND('',#327,.T.);
#247=FACE_OUTER_BOUND('',#328,.T.);
#248=FACE_OUTER_BOUND('',#329,.T.);
#249=FACE_OUTER_BOUND('',#330,.T.);
#250=FACE_OUTER_BOUND('',#331,.T.);
#251=FACE_OUTER_BOUND('',#332,.T.);
#252=FACE_OUTER_BOUND('',#333,.T.);
#253=FACE_OUTER_BOUND('',#334,.T.);
#254=FACE_OUTER_BOUND('',#335,.T.);
#255=FACE_OUTER_BOUND('',#336,.T.);
#256=FACE_OUTER_BOUND('',#337,.T.);
#257=FACE_OUTER_BOUND('',#338,.T.);
#258=FACE_OUTER_BOUND('',#339,.T.);
#259=FACE_OUTER_BOUND('',#340,.T.);
#260=FACE_OUTER_BOUND('',#341,.T.);
#261=FACE_OUTER_BOUND('',#350,.T.);
#262=FACE_OUTER_BOUND('',#351,.T.);
#263=FACE_OUTER_BOUND('',#352,.T.);
#264=FACE_OUTER_BOUND('',#353,.T.);
#265=FACE_OUTER_BOUND('',#354,.T.);
#266=FACE_OUTER_BOUND('',#355,.T.);
#267=FACE_OUTER_BOUND('',#356,.T.);
#268=FACE_OUTER_BOUND('',#357,.T.);
#269=FACE_OUTER_BOUND('',#358,.T.);
#270=FACE_OUTER_BOUND('',#359,.T.);
#271=FACE_OUTER_BOUND('',#360,.T.);
#272=FACE_OUTER_BOUND('',#361,.T.);
#273=FACE_OUTER_BOUND('',#362,.T.);
#274=FACE_OUTER_BOUND('',#363,.T.);
#275=FACE_OUTER_BOUND('',#364,.T.);
#276=FACE_OUTER_BOUND('',#365,.T.);
#277=FACE_OUTER_BOUND('',#366,.T.);
#278=FACE_OUTER_BOUND('',#367,.T.);
#279=FACE_OUTER_BOUND('',#368,.T.);
#280=FACE_OUTER_BOUND('',#369,.T.);
#281=FACE_OUTER_BOUND('',#370,.T.);
#282=FACE_OUTER_BOUND('',#371,.T.);
#283=FACE_OUTER_BOUND('',#372,.T.);
#284=FACE_OUTER_BOUND('',#373,.T.);
#285=FACE_OUTER_BOUND('',#374,.T.);
#286=FACE_OUTER_BOUND('',#375,.T.);
#287=FACE_OUTER_BOUND('',#376,.T.);
#288=FACE_OUTER_BOUND('',#388,.T.);
#289=FACE_OUTER_BOUND('',#389,.T.);
#290=FACE_OUTER_BOUND('',#390,.T.);
#291=EDGE_LOOP('',(#726,#727,#728,#729,#730));
#292=EDGE_LOOP('',(#731,#732,#733,#734,#735));
#293=EDGE_LOOP('',(#736));
#294=EDGE_LOOP('',(#737,#738,#739,#740,#741));
#295=EDGE_LOOP('',(#742,#743,#744,#745,#746));
#296=EDGE_LOOP('',(#747));
#297=EDGE_LOOP('',(#748,#749,#750,#751,#752));
#298=EDGE_LOOP('',(#753,#754,#755,#756,#757));
#299=EDGE_LOOP('',(#758));
#300=EDGE_LOOP('',(#759,#760,#761,#762,#763));
#301=EDGE_LOOP('',(#764,#765,#766,#767,#768));
#302=EDGE_LOOP('',(#769));
#303=EDGE_LOOP('',(#770,#771,#772,#773,#774));
#304=EDGE_LOOP('',(#775,#776,#777,#778,#779));
#305=EDGE_LOOP('',(#780));
#306=EDGE_LOOP('',(#781,#782,#783,#784,#785));
#307=EDGE_LOOP('',(#786,#787,#788,#789,#790));
#308=EDGE_LOOP('',(#791));
#309=EDGE_LOOP('',(#792,#793,#794,#795,#796));
#310=EDGE_LOOP('',(#797,#798,#799,#800,#801));
#311=EDGE_LOOP('',(#802));
#312=EDGE_LOOP('',(#803,#804,#805,#806,#807));
#313=EDGE_LOOP('',(#808,#809,#810,#811,#812));
#314=EDGE_LOOP('',(#813));
#315=EDGE_LOOP('',(#814,#815,#816,#817,#818));
#316=EDGE_LOOP('',(#819,#820,#821,#822,#823));
#317=EDGE_LOOP('',(#824));
#318=EDGE_LOOP('',(#825));
#319=EDGE_LOOP('',(#826,#827,#828,#829,#830));
#320=EDGE_LOOP('',(#831,#832,#833,#834,#835));
#321=EDGE_LOOP('',(#836));
#322=EDGE_LOOP('',(#837));
#323=EDGE_LOOP('',(#838,#839,#840,#841,#842));
#324=EDGE_LOOP('',(#843,#844,#845,#846,#847));
#325=EDGE_LOOP('',(#848));
#326=EDGE_LOOP('',(#849));
#327=EDGE_LOOP('',(#850,#851,#852));
#328=EDGE_LOOP('',(#853,#854,#855,#856));
#329=EDGE_LOOP('',(#857,#858,#859));
#330=EDGE_LOOP('',(#860,#861,#862,#863));
#331=EDGE_LOOP('',(#864,#865,#866));
#332=EDGE_LOOP('',(#867,#868,#869,#870));
#333=EDGE_LOOP('',(#871,#872,#873,#874));
#334=EDGE_LOOP('',(#875,#876,#877));
#335=EDGE_LOOP('',(#878,#879,#880,#881));
#336=EDGE_LOOP('',(#882,#883,#884,#885));
#337=EDGE_LOOP('',(#886,#887,#888,#889));
#338=EDGE_LOOP('',(#890,#891,#892,#893));
#339=EDGE_LOOP('',(#894,#895,#896,#897));
#340=EDGE_LOOP('',(#898,#899,#900,#901));
#341=EDGE_LOOP('',(#902,#903,#904,#905));
#342=EDGE_LOOP('',(#906));
#343=EDGE_LOOP('',(#907));
#344=EDGE_LOOP('',(#908));
#345=EDGE_LOOP('',(#909));
#346=EDGE_LOOP('',(#910));
#347=EDGE_LOOP('',(#911));
#348=EDGE_LOOP('',(#912));
#349=EDGE_LOOP('',(#913));
#350=EDGE_LOOP('',(#914,#915,#916,#917));
#351=EDGE_LOOP('',(#918));
#352=EDGE_LOOP('',(#919,#920,#921,#922));
#353=EDGE_LOOP('',(#923));
#354=EDGE_LOOP('',(#924,#925,#926,#927));
#355=EDGE_LOOP('',(#928));
#356=EDGE_LOOP('',(#929,#930,#931,#932));
#357=EDGE_LOOP('',(#933));
#358=EDGE_LOOP('',(#934,#935,#936,#937));
#359=EDGE_LOOP('',(#938));
#360=EDGE_LOOP('',(#939,#940,#941,#942));
#361=EDGE_LOOP('',(#943));
#362=EDGE_LOOP('',(#944,#945,#946,#947));
#363=EDGE_LOOP('',(#948));
#364=EDGE_LOOP('',(#949,#950,#951,#952));
#365=EDGE_LOOP('',(#953));
#366=EDGE_LOOP('',(#954,#955,#956,#957));
#367=EDGE_LOOP('',(#958));
#368=EDGE_LOOP('',(#959,#960,#961,#962));
#369=EDGE_LOOP('',(#963));
#370=EDGE_LOOP('',(#964,#965,#966,#967));
#371=EDGE_LOOP('',(#968));
#372=EDGE_LOOP('',(#969,#970,#971,#972));
#373=EDGE_LOOP('',(#973,#974,#975,#976));
#374=EDGE_LOOP('',(#977,#978,#979,#980));
#375=EDGE_LOOP('',(#981,#982,#983,#984));
#376=EDGE_LOOP('',(#985,#986,#987,#988));
#377=EDGE_LOOP('',(#989));
#378=EDGE_LOOP('',(#990));
#379=EDGE_LOOP('',(#991));
#380=EDGE_LOOP('',(#992));
#381=EDGE_LOOP('',(#993));
#382=EDGE_LOOP('',(#994));
#383=EDGE_LOOP('',(#995));
#384=EDGE_LOOP('',(#996));
#385=EDGE_LOOP('',(#997));
#386=EDGE_LOOP('',(#998));
#387=EDGE_LOOP('',(#999));
#388=EDGE_LOOP('',(#1000,#1001,#1002,#1003));
#389=EDGE_LOOP('',(#1004,#1005,#1006,#1007));
#390=EDGE_LOOP('',(#1008,#1009,#1010,#1011,#1012,#1013,#1014,#1015));
#391=EDGE_LOOP('',(#1016,#1017,#1018,#1019));
#392=CIRCLE('',#1124,2.3);
#393=CIRCLE('',#1125,0.2);
#394=CIRCLE('',#1126,2.5);
#395=CIRCLE('',#1127,2.5);
#396=CIRCLE('',#1129,2.5);
#397=CIRCLE('',#1132,2.3);
#398=CIRCLE('',#1133,0.2);
#399=CIRCLE('',#1134,2.5);
#400=CIRCLE('',#1135,2.5);
#401=CIRCLE('',#1137,2.5);
#402=CIRCLE('',#1140,2.3);
#403=CIRCLE('',#1141,0.2);
#404=CIRCLE('',#1142,2.5);
#405=CIRCLE('',#1143,2.5);
#406=CIRCLE('',#1145,2.5);
#407=CIRCLE('',#1148,2.3);
#408=CIRCLE('',#1149,0.2);
#409=CIRCLE('',#1150,2.5);
#410=CIRCLE('',#1151,2.5);
#411=CIRCLE('',#1153,2.5);
#412=CIRCLE('',#1156,2.3);
#413=CIRCLE('',#1157,0.2);
#414=CIRCLE('',#1158,2.5);
#415=CIRCLE('',#1159,2.5);
#416=CIRCLE('',#1161,2.5);
#417=CIRCLE('',#1164,2.3);
#418=CIRCLE('',#1165,0.2);
#419=CIRCLE('',#1166,2.5);
#420=CIRCLE('',#1167,2.5);
#421=CIRCLE('',#1169,2.5);
#422=CIRCLE('',#1172,2.3);
#423=CIRCLE('',#1173,0.2);
#424=CIRCLE('',#1174,2.5);
#425=CIRCLE('',#1175,2.5);
#426=CIRCLE('',#1177,2.5);
#427=CIRCLE('',#1180,2.3);
#428=CIRCLE('',#1181,0.2);
#429=CIRCLE('',#1182,2.5);
#430=CIRCLE('',#1183,2.5);
#431=CIRCLE('',#1185,2.5);
#432=CIRCLE('',#1188,2.95);
#433=CIRCLE('',#1189,0.2);
#434=CIRCLE('',#1190,3.15);
#435=CIRCLE('',#1191,3.15);
#436=CIRCLE('',#1193,3.15);
#437=CIRCLE('',#1195,2.15);
#438=CIRCLE('',#1197,2.95);
#439=CIRCLE('',#1198,0.2);
#440=CIRCLE('',#1199,3.15);
#441=CIRCLE('',#1200,3.15);
#442=CIRCLE('',#1202,3.15);
#443=CIRCLE('',#1204,2.15);
#444=CIRCLE('',#1206,2.95);
#445=CIRCLE('',#1207,0.2);
#446=CIRCLE('',#1208,3.15);
#447=CIRCLE('',#1209,3.15);
#448=CIRCLE('',#1211,3.15);
#449=CIRCLE('',#1213,2.15);
#450=CIRCLE('',#1215,0.2);
#451=CIRCLE('',#1216,0.2);
#452=CIRCLE('',#1217,0.2);
#453=CIRCLE('',#1219,0.2);
#454=CIRCLE('',#1221,0.2);
#455=CIRCLE('',#1222,0.2);
#456=CIRCLE('',#1223,0.2);
#457=CIRCLE('',#1225,0.2);
#458=CIRCLE('',#1227,0.2);
#459=CIRCLE('',#1228,0.2);
#460=CIRCLE('',#1229,0.2);
#461=CIRCLE('',#1231,0.2);
#462=CIRCLE('',#1234,0.2);
#463=CIRCLE('',#1235,0.2);
#464=CIRCLE('',#1236,0.2);
#465=CIRCLE('',#1238,0.2);
#466=CIRCLE('',#1246,2.15);
#467=CIRCLE('',#1249,2.15);
#468=CIRCLE('',#1252,2.15);
#469=CIRCLE('',#1255,1.01);
#470=CIRCLE('',#1256,1.01);
#471=CIRCLE('',#1259,1.01);
#472=CIRCLE('',#1260,1.01);
#473=CIRCLE('',#1263,1.01);
#474=CIRCLE('',#1264,1.01);
#475=CIRCLE('',#1267,1.01);
#476=CIRCLE('',#1268,1.01);
#477=CIRCLE('',#1271,1.01);
#478=CIRCLE('',#1272,1.01);
#479=CIRCLE('',#1275,1.01);
#480=CIRCLE('',#1276,1.01);
#481=CIRCLE('',#1279,1.01);
#482=CIRCLE('',#1280,1.01);
#483=CIRCLE('',#1283,1.01);
#484=CIRCLE('',#1284,1.01);
#485=VERTEX_POINT('',#1694);
#486=VERTEX_POINT('',#1696);
#487=VERTEX_POINT('',#1698);
#488=VERTEX_POINT('',#1702);
#489=VERTEX_POINT('',#1707);
#490=VERTEX_POINT('',#1709);
#491=VERTEX_POINT('',#1711);
#492=VERTEX_POINT('',#1715);
#493=VERTEX_POINT('',#1720);
#494=VERTEX_POINT('',#1722);
#495=VERTEX_POINT('',#1724);
#496=VERTEX_POINT('',#1728);
#497=VERTEX_POINT('',#1733);
#498=VERTEX_POINT('',#1735);
#499=VERTEX_POINT('',#1737);
#500=VERTEX_POINT('',#1741);
#501=VERTEX_POINT('',#1746);
#502=VERTEX_POINT('',#1748);
#503=VERTEX_POINT('',#1750);
#504=VERTEX_POINT('',#1754);
#505=VERTEX_POINT('',#1759);
#506=VERTEX_POINT('',#1761);
#507=VERTEX_POINT('',#1763);
#508=VERTEX_POINT('',#1767);
#509=VERTEX_POINT('',#1772);
#510=VERTEX_POINT('',#1774);
#511=VERTEX_POINT('',#1776);
#512=VERTEX_POINT('',#1780);
#513=VERTEX_POINT('',#1785);
#514=VERTEX_POINT('',#1787);
#515=VERTEX_POINT('',#1789);
#516=VERTEX_POINT('',#1793);
#517=VERTEX_POINT('',#1798);
#518=VERTEX_POINT('',#1800);
#519=VERTEX_POINT('',#1802);
#520=VERTEX_POINT('',#1806);
#521=VERTEX_POINT('',#1810);
#522=VERTEX_POINT('',#1813);
#523=VERTEX_POINT('',#1815);
#524=VERTEX_POINT('',#1817);
#525=VERTEX_POINT('',#1821);
#526=VERTEX_POINT('',#1825);
#527=VERTEX_POINT('',#1828);
#528=VERTEX_POINT('',#1830);
#529=VERTEX_POINT('',#1832);
#530=VERTEX_POINT('',#1836);
#531=VERTEX_POINT('',#1840);
#532=VERTEX_POINT('',#1843);
#533=VERTEX_POINT('',#1844);
#534=VERTEX_POINT('',#1846);
#535=VERTEX_POINT('',#1850);
#536=VERTEX_POINT('',#1851);
#537=VERTEX_POINT('',#1856);
#538=VERTEX_POINT('',#1857);
#539=VERTEX_POINT('',#1859);
#540=VERTEX_POINT('',#1863);
#541=VERTEX_POINT('',#1864);
#542=VERTEX_POINT('',#1869);
#543=VERTEX_POINT('',#1870);
#544=VERTEX_POINT('',#1872);
#545=VERTEX_POINT('',#1876);
#546=VERTEX_POINT('',#1877);
#547=VERTEX_POINT('',#1885);
#548=VERTEX_POINT('',#1886);
#549=VERTEX_POINT('',#1888);
#550=VERTEX_POINT('',#1892);
#551=VERTEX_POINT('',#1893);
#552=VERTEX_POINT('',#1912);
#553=VERTEX_POINT('',#1917);
#554=VERTEX_POINT('',#1922);
#555=VERTEX_POINT('',#1927);
#556=VERTEX_POINT('',#1929);
#557=VERTEX_POINT('',#1934);
#558=VERTEX_POINT('',#1936);
#559=VERTEX_POINT('',#1941);
#560=VERTEX_POINT('',#1943);
#561=VERTEX_POINT('',#1948);
#562=VERTEX_POINT('',#1950);
#563=VERTEX_POINT('',#1955);
#564=VERTEX_POINT('',#1957);
#565=VERTEX_POINT('',#1962);
#566=VERTEX_POINT('',#1964);
#567=VERTEX_POINT('',#1969);
#568=VERTEX_POINT('',#1971);
#569=VERTEX_POINT('',#1976);
#570=VERTEX_POINT('',#1978);
#571=VERTEX_POINT('',#1983);
#572=VERTEX_POINT('',#1984);
#573=VERTEX_POINT('',#1986);
#574=VERTEX_POINT('',#1988);
#575=VERTEX_POINT('',#1992);
#576=VERTEX_POINT('',#1994);
#577=VERTEX_POINT('',#1998);
#578=VERTEX_POINT('',#2000);
#579=EDGE_CURVE('',#485,#485,#392,.T.);
#580=EDGE_CURVE('',#485,#486,#393,.T.);
#581=EDGE_CURVE('',#486,#487,#394,.T.);
#582=EDGE_CURVE('',#487,#486,#395,.T.);
#583=EDGE_CURVE('',#487,#488,#75,.T.);
#584=EDGE_CURVE('',#488,#488,#396,.T.);
#585=EDGE_CURVE('',#489,#489,#397,.T.);
#586=EDGE_CURVE('',#489,#490,#398,.T.);
#587=EDGE_CURVE('',#490,#491,#399,.T.);
#588=EDGE_CURVE('',#491,#490,#400,.T.);
#589=EDGE_CURVE('',#491,#492,#76,.T.);
#590=EDGE_CURVE('',#492,#492,#401,.T.);
#591=EDGE_CURVE('',#493,#493,#402,.T.);
#592=EDGE_CURVE('',#493,#494,#403,.T.);
#593=EDGE_CURVE('',#494,#495,#404,.T.);
#594=EDGE_CURVE('',#495,#494,#405,.T.);
#595=EDGE_CURVE('',#495,#496,#77,.T.);
#596=EDGE_CURVE('',#496,#496,#406,.T.);
#597=EDGE_CURVE('',#497,#497,#407,.T.);
#598=EDGE_CURVE('',#497,#498,#408,.T.);
#599=EDGE_CURVE('',#498,#499,#409,.T.);
#600=EDGE_CURVE('',#499,#498,#410,.T.);
#601=EDGE_CURVE('',#499,#500,#78,.T.);
#602=EDGE_CURVE('',#500,#500,#411,.T.);
#603=EDGE_CURVE('',#501,#501,#412,.T.);
#604=EDGE_CURVE('',#501,#502,#413,.T.);
#605=EDGE_CURVE('',#502,#503,#414,.T.);
#606=EDGE_CURVE('',#503,#502,#415,.T.);
#607=EDGE_CURVE('',#503,#504,#79,.T.);
#608=EDGE_CURVE('',#504,#504,#416,.T.);
#609=EDGE_CURVE('',#505,#505,#417,.T.);
#610=EDGE_CURVE('',#505,#506,#418,.T.);
#611=EDGE_CURVE('',#506,#507,#419,.T.);
#612=EDGE_CURVE('',#507,#506,#420,.T.);
#613=EDGE_CURVE('',#507,#508,#80,.T.);
#614=EDGE_CURVE('',#508,#508,#421,.T.);
#615=EDGE_CURVE('',#509,#509,#422,.T.);
#616=EDGE_CURVE('',#509,#510,#423,.T.);
#617=EDGE_CURVE('',#510,#511,#424,.T.);
#618=EDGE_CURVE('',#511,#510,#425,.T.);
#619=EDGE_CURVE('',#511,#512,#81,.T.);
#620=EDGE_CURVE('',#512,#512,#426,.T.);
#621=EDGE_CURVE('',#513,#513,#427,.T.);
#622=EDGE_CURVE('',#513,#514,#428,.T.);
#623=EDGE_CURVE('',#514,#515,#429,.T.);
#624=EDGE_CURVE('',#515,#514,#430,.T.);
#625=EDGE_CURVE('',#515,#516,#82,.T.);
#626=EDGE_CURVE('',#516,#516,#431,.T.);
#627=EDGE_CURVE('',#517,#517,#432,.T.);
#628=EDGE_CURVE('',#517,#518,#433,.T.);
#629=EDGE_CURVE('',#518,#519,#434,.T.);
#630=EDGE_CURVE('',#519,#518,#435,.T.);
#631=EDGE_CURVE('',#519,#520,#83,.T.);
#632=EDGE_CURVE('',#520,#520,#436,.T.);
#633=EDGE_CURVE('',#521,#521,#437,.T.);
#634=EDGE_CURVE('',#522,#522,#438,.T.);
#635=EDGE_CURVE('',#522,#523,#439,.T.);
#636=EDGE_CURVE('',#523,#524,#440,.T.);
#637=EDGE_CURVE('',#524,#523,#441,.T.);
#638=EDGE_CURVE('',#524,#525,#84,.T.);
#639=EDGE_CURVE('',#525,#525,#442,.T.);
#640=EDGE_CURVE('',#526,#526,#443,.T.);
#641=EDGE_CURVE('',#527,#527,#444,.T.);
#642=EDGE_CURVE('',#527,#528,#445,.T.);
#643=EDGE_CURVE('',#528,#529,#446,.T.);
#644=EDGE_CURVE('',#529,#528,#447,.T.);
#645=EDGE_CURVE('',#529,#530,#85,.T.);
#646=EDGE_CURVE('',#530,#530,#448,.T.);
#647=EDGE_CURVE('',#531,#531,#449,.T.);
#648=EDGE_CURVE('',#532,#533,#450,.F.);
#649=EDGE_CURVE('',#534,#532,#451,.F.);
#650=EDGE_CURVE('',#533,#534,#452,.F.);
#651=EDGE_CURVE('',#535,#536,#453,.T.);
#652=EDGE_CURVE('',#536,#534,#86,.T.);
#653=EDGE_CURVE('',#532,#535,#87,.T.);
#654=EDGE_CURVE('',#537,#538,#454,.F.);
#655=EDGE_CURVE('',#539,#537,#455,.F.);
#656=EDGE_CURVE('',#538,#539,#456,.F.);
#657=EDGE_CURVE('',#540,#541,#457,.T.);
#658=EDGE_CURVE('',#541,#539,#88,.T.);
#659=EDGE_CURVE('',#537,#540,#89,.T.);
#660=EDGE_CURVE('',#542,#543,#458,.F.);
#661=EDGE_CURVE('',#544,#542,#459,.F.);
#662=EDGE_CURVE('',#543,#544,#460,.F.);
#663=EDGE_CURVE('',#545,#546,#461,.T.);
#664=EDGE_CURVE('',#546,#544,#90,.T.);
#665=EDGE_CURVE('',#542,#545,#91,.T.);
#666=EDGE_CURVE('',#533,#543,#92,.T.);
#667=EDGE_CURVE('',#544,#532,#93,.T.);
#668=EDGE_CURVE('',#547,#548,#462,.F.);
#669=EDGE_CURVE('',#549,#547,#463,.F.);
#670=EDGE_CURVE('',#548,#549,#464,.F.);
#671=EDGE_CURVE('',#550,#551,#465,.T.);
#672=EDGE_CURVE('',#551,#549,#94,.T.);
#673=EDGE_CURVE('',#547,#550,#95,.T.);
#674=EDGE_CURVE('',#543,#548,#96,.T.);
#675=EDGE_CURVE('',#549,#542,#97,.T.);
#676=EDGE_CURVE('',#548,#538,#98,.T.);
#677=EDGE_CURVE('',#539,#547,#99,.T.);
#678=EDGE_CURVE('',#538,#533,#100,.T.);
#679=EDGE_CURVE('',#534,#537,#101,.T.);
#680=EDGE_CURVE('',#546,#535,#102,.T.);
#681=EDGE_CURVE('',#551,#545,#103,.T.);
#682=EDGE_CURVE('',#521,#552,#104,.T.);
#683=EDGE_CURVE('',#552,#552,#466,.T.);
#684=EDGE_CURVE('',#526,#553,#105,.T.);
#685=EDGE_CURVE('',#553,#553,#467,.T.);
#686=EDGE_CURVE('',#531,#554,#106,.T.);
#687=EDGE_CURVE('',#554,#554,#468,.T.);
#688=EDGE_CURVE('',#555,#555,#469,.T.);
#689=EDGE_CURVE('',#555,#556,#107,.T.);
#690=EDGE_CURVE('',#556,#556,#470,.F.);
#691=EDGE_CURVE('',#557,#557,#471,.T.);
#692=EDGE_CURVE('',#557,#558,#108,.T.);
#693=EDGE_CURVE('',#558,#558,#472,.F.);
#694=EDGE_CURVE('',#559,#559,#473,.T.);
#695=EDGE_CURVE('',#559,#560,#109,.T.);
#696=EDGE_CURVE('',#560,#560,#474,.F.);
#697=EDGE_CURVE('',#561,#561,#475,.T.);
#698=EDGE_CURVE('',#561,#562,#110,.T.);
#699=EDGE_CURVE('',#562,#562,#476,.F.);
#700=EDGE_CURVE('',#563,#563,#477,.T.);
#701=EDGE_CURVE('',#563,#564,#111,.T.);
#702=EDGE_CURVE('',#564,#564,#478,.F.);
#703=EDGE_CURVE('',#565,#565,#479,.T.);
#704=EDGE_CURVE('',#565,#566,#112,.T.);
#705=EDGE_CURVE('',#566,#566,#480,.F.);
#706=EDGE_CURVE('',#567,#567,#481,.T.);
#707=EDGE_CURVE('',#567,#568,#113,.T.);
#708=EDGE_CURVE('',#568,#568,#482,.F.);
#709=EDGE_CURVE('',#569,#569,#483,.T.);
#710=EDGE_CURVE('',#569,#570,#114,.T.);
#711=EDGE_CURVE('',#570,#570,#484,.F.);
#712=EDGE_CURVE('',#571,#572,#115,.T.);
#713=EDGE_CURVE('',#571,#573,#116,.F.);
#714=EDGE_CURVE('',#573,#574,#117,.F.);
#715=EDGE_CURVE('',#572,#574,#118,.T.);
#716=EDGE_CURVE('',#575,#571,#119,.T.);
#717=EDGE_CURVE('',#575,#576,#120,.F.);
#718=EDGE_CURVE('',#576,#573,#121,.F.);
#719=EDGE_CURVE('',#577,#575,#122,.T.);
#720=EDGE_CURVE('',#577,#578,#123,.F.);
#721=EDGE_CURVE('',#578,#576,#124,.F.);
#722=EDGE_CURVE('',#572,#577,#125,.T.);
#723=EDGE_CURVE('',#574,#578,#126,.F.);
#724=EDGE_CURVE('',#536,#540,#127,.T.);
#725=EDGE_CURVE('',#541,#550,#128,.T.);
#726=ORIENTED_EDGE('',*,*,#579,.T.);
#727=ORIENTED_EDGE('',*,*,#580,.T.);
#728=ORIENTED_EDGE('',*,*,#581,.T.);
#729=ORIENTED_EDGE('',*,*,#582,.T.);
#730=ORIENTED_EDGE('',*,*,#580,.F.);
#731=ORIENTED_EDGE('',*,*,#582,.F.);
#732=ORIENTED_EDGE('',*,*,#583,.T.);
#733=ORIENTED_EDGE('',*,*,#584,.F.);
#734=ORIENTED_EDGE('',*,*,#583,.F.);
#735=ORIENTED_EDGE('',*,*,#581,.F.);
#736=ORIENTED_EDGE('',*,*,#579,.F.);
#737=ORIENTED_EDGE('',*,*,#585,.T.);
#738=ORIENTED_EDGE('',*,*,#586,.T.);
#739=ORIENTED_EDGE('',*,*,#587,.T.);
#740=ORIENTED_EDGE('',*,*,#588,.T.);
#741=ORIENTED_EDGE('',*,*,#586,.F.);
#742=ORIENTED_EDGE('',*,*,#588,.F.);
#743=ORIENTED_EDGE('',*,*,#589,.T.);
#744=ORIENTED_EDGE('',*,*,#590,.F.);
#745=ORIENTED_EDGE('',*,*,#589,.F.);
#746=ORIENTED_EDGE('',*,*,#587,.F.);
#747=ORIENTED_EDGE('',*,*,#585,.F.);
#748=ORIENTED_EDGE('',*,*,#591,.T.);
#749=ORIENTED_EDGE('',*,*,#592,.T.);
#750=ORIENTED_EDGE('',*,*,#593,.T.);
#751=ORIENTED_EDGE('',*,*,#594,.T.);
#752=ORIENTED_EDGE('',*,*,#592,.F.);
#753=ORIENTED_EDGE('',*,*,#594,.F.);
#754=ORIENTED_EDGE('',*,*,#595,.T.);
#755=ORIENTED_EDGE('',*,*,#596,.F.);
#756=ORIENTED_EDGE('',*,*,#595,.F.);
#757=ORIENTED_EDGE('',*,*,#593,.F.);
#758=ORIENTED_EDGE('',*,*,#591,.F.);
#759=ORIENTED_EDGE('',*,*,#597,.T.);
#760=ORIENTED_EDGE('',*,*,#598,.T.);
#761=ORIENTED_EDGE('',*,*,#599,.T.);
#762=ORIENTED_EDGE('',*,*,#600,.T.);
#763=ORIENTED_EDGE('',*,*,#598,.F.);
#764=ORIENTED_EDGE('',*,*,#600,.F.);
#765=ORIENTED_EDGE('',*,*,#601,.T.);
#766=ORIENTED_EDGE('',*,*,#602,.F.);
#767=ORIENTED_EDGE('',*,*,#601,.F.);
#768=ORIENTED_EDGE('',*,*,#599,.F.);
#769=ORIENTED_EDGE('',*,*,#597,.F.);
#770=ORIENTED_EDGE('',*,*,#603,.T.);
#771=ORIENTED_EDGE('',*,*,#604,.T.);
#772=ORIENTED_EDGE('',*,*,#605,.T.);
#773=ORIENTED_EDGE('',*,*,#606,.T.);
#774=ORIENTED_EDGE('',*,*,#604,.F.);
#775=ORIENTED_EDGE('',*,*,#606,.F.);
#776=ORIENTED_EDGE('',*,*,#607,.T.);
#777=ORIENTED_EDGE('',*,*,#608,.F.);
#778=ORIENTED_EDGE('',*,*,#607,.F.);
#779=ORIENTED_EDGE('',*,*,#605,.F.);
#780=ORIENTED_EDGE('',*,*,#603,.F.);
#781=ORIENTED_EDGE('',*,*,#609,.T.);
#782=ORIENTED_EDGE('',*,*,#610,.T.);
#783=ORIENTED_EDGE('',*,*,#611,.T.);
#784=ORIENTED_EDGE('',*,*,#612,.T.);
#785=ORIENTED_EDGE('',*,*,#610,.F.);
#786=ORIENTED_EDGE('',*,*,#612,.F.);
#787=ORIENTED_EDGE('',*,*,#613,.T.);
#788=ORIENTED_EDGE('',*,*,#614,.F.);
#789=ORIENTED_EDGE('',*,*,#613,.F.);
#790=ORIENTED_EDGE('',*,*,#611,.F.);
#791=ORIENTED_EDGE('',*,*,#609,.F.);
#792=ORIENTED_EDGE('',*,*,#615,.T.);
#793=ORIENTED_EDGE('',*,*,#616,.T.);
#794=ORIENTED_EDGE('',*,*,#617,.T.);
#795=ORIENTED_EDGE('',*,*,#618,.T.);
#796=ORIENTED_EDGE('',*,*,#616,.F.);
#797=ORIENTED_EDGE('',*,*,#618,.F.);
#798=ORIENTED_EDGE('',*,*,#619,.T.);
#799=ORIENTED_EDGE('',*,*,#620,.F.);
#800=ORIENTED_EDGE('',*,*,#619,.F.);
#801=ORIENTED_EDGE('',*,*,#617,.F.);
#802=ORIENTED_EDGE('',*,*,#615,.F.);
#803=ORIENTED_EDGE('',*,*,#621,.T.);
#804=ORIENTED_EDGE('',*,*,#622,.T.);
#805=ORIENTED_EDGE('',*,*,#623,.T.);
#806=ORIENTED_EDGE('',*,*,#624,.T.);
#807=ORIENTED_EDGE('',*,*,#622,.F.);
#808=ORIENTED_EDGE('',*,*,#624,.F.);
#809=ORIENTED_EDGE('',*,*,#625,.T.);
#810=ORIENTED_EDGE('',*,*,#626,.F.);
#811=ORIENTED_EDGE('',*,*,#625,.F.);
#812=ORIENTED_EDGE('',*,*,#623,.F.);
#813=ORIENTED_EDGE('',*,*,#621,.F.);
#814=ORIENTED_EDGE('',*,*,#627,.T.);
#815=ORIENTED_EDGE('',*,*,#628,.T.);
#816=ORIENTED_EDGE('',*,*,#629,.T.);
#817=ORIENTED_EDGE('',*,*,#630,.T.);
#818=ORIENTED_EDGE('',*,*,#628,.F.);
#819=ORIENTED_EDGE('',*,*,#630,.F.);
#820=ORIENTED_EDGE('',*,*,#631,.T.);
#821=ORIENTED_EDGE('',*,*,#632,.F.);
#822=ORIENTED_EDGE('',*,*,#631,.F.);
#823=ORIENTED_EDGE('',*,*,#629,.F.);
#824=ORIENTED_EDGE('',*,*,#627,.F.);
#825=ORIENTED_EDGE('',*,*,#633,.T.);
#826=ORIENTED_EDGE('',*,*,#634,.T.);
#827=ORIENTED_EDGE('',*,*,#635,.T.);
#828=ORIENTED_EDGE('',*,*,#636,.T.);
#829=ORIENTED_EDGE('',*,*,#637,.T.);
#830=ORIENTED_EDGE('',*,*,#635,.F.);
#831=ORIENTED_EDGE('',*,*,#637,.F.);
#832=ORIENTED_EDGE('',*,*,#638,.T.);
#833=ORIENTED_EDGE('',*,*,#639,.F.);
#834=ORIENTED_EDGE('',*,*,#638,.F.);
#835=ORIENTED_EDGE('',*,*,#636,.F.);
#836=ORIENTED_EDGE('',*,*,#634,.F.);
#837=ORIENTED_EDGE('',*,*,#640,.T.);
#838=ORIENTED_EDGE('',*,*,#641,.T.);
#839=ORIENTED_EDGE('',*,*,#642,.T.);
#840=ORIENTED_EDGE('',*,*,#643,.T.);
#841=ORIENTED_EDGE('',*,*,#644,.T.);
#842=ORIENTED_EDGE('',*,*,#642,.F.);
#843=ORIENTED_EDGE('',*,*,#644,.F.);
#844=ORIENTED_EDGE('',*,*,#645,.T.);
#845=ORIENTED_EDGE('',*,*,#646,.F.);
#846=ORIENTED_EDGE('',*,*,#645,.F.);
#847=ORIENTED_EDGE('',*,*,#643,.F.);
#848=ORIENTED_EDGE('',*,*,#641,.F.);
#849=ORIENTED_EDGE('',*,*,#647,.T.);
#850=ORIENTED_EDGE('',*,*,#648,.F.);
#851=ORIENTED_EDGE('',*,*,#649,.F.);
#852=ORIENTED_EDGE('',*,*,#650,.F.);
#853=ORIENTED_EDGE('',*,*,#651,.T.);
#854=ORIENTED_EDGE('',*,*,#652,.T.);
#855=ORIENTED_EDGE('',*,*,#649,.T.);
#856=ORIENTED_EDGE('',*,*,#653,.T.);
#857=ORIENTED_EDGE('',*,*,#654,.F.);
#858=ORIENTED_EDGE('',*,*,#655,.F.);
#859=ORIENTED_EDGE('',*,*,#656,.F.);
#860=ORIENTED_EDGE('',*,*,#657,.T.);
#861=ORIENTED_EDGE('',*,*,#658,.T.);
#862=ORIENTED_EDGE('',*,*,#655,.T.);
#863=ORIENTED_EDGE('',*,*,#659,.T.);
#864=ORIENTED_EDGE('',*,*,#660,.F.);
#865=ORIENTED_EDGE('',*,*,#661,.F.);
#866=ORIENTED_EDGE('',*,*,#662,.F.);
#867=ORIENTED_EDGE('',*,*,#663,.T.);
#868=ORIENTED_EDGE('',*,*,#664,.T.);
#869=ORIENTED_EDGE('',*,*,#661,.T.);
#870=ORIENTED_EDGE('',*,*,#665,.T.);
#871=ORIENTED_EDGE('',*,*,#648,.T.);
#872=ORIENTED_EDGE('',*,*,#666,.T.);
#873=ORIENTED_EDGE('',*,*,#662,.T.);
#874=ORIENTED_EDGE('',*,*,#667,.T.);
#875=ORIENTED_EDGE('',*,*,#668,.F.);
#876=ORIENTED_EDGE('',*,*,#669,.F.);
#877=ORIENTED_EDGE('',*,*,#670,.F.);
#878=ORIENTED_EDGE('',*,*,#671,.T.);
#879=ORIENTED_EDGE('',*,*,#672,.T.);
#880=ORIENTED_EDGE('',*,*,#669,.T.);
#881=ORIENTED_EDGE('',*,*,#673,.T.);
#882=ORIENTED_EDGE('',*,*,#660,.T.);
#883=ORIENTED_EDGE('',*,*,#674,.T.);
#884=ORIENTED_EDGE('',*,*,#670,.T.);
#885=ORIENTED_EDGE('',*,*,#675,.T.);
#886=ORIENTED_EDGE('',*,*,#668,.T.);
#887=ORIENTED_EDGE('',*,*,#676,.T.);
#888=ORIENTED_EDGE('',*,*,#656,.T.);
#889=ORIENTED_EDGE('',*,*,#677,.T.);
#890=ORIENTED_EDGE('',*,*,#654,.T.);
#891=ORIENTED_EDGE('',*,*,#678,.T.);
#892=ORIENTED_EDGE('',*,*,#650,.T.);
#893=ORIENTED_EDGE('',*,*,#679,.T.);
#894=ORIENTED_EDGE('',*,*,#653,.F.);
#895=ORIENTED_EDGE('',*,*,#667,.F.);
#896=ORIENTED_EDGE('',*,*,#664,.F.);
#897=ORIENTED_EDGE('',*,*,#680,.T.);
#898=ORIENTED_EDGE('',*,*,#665,.F.);
#899=ORIENTED_EDGE('',*,*,#675,.F.);
#900=ORIENTED_EDGE('',*,*,#672,.F.);
#901=ORIENTED_EDGE('',*,*,#681,.T.);
#902=ORIENTED_EDGE('',*,*,#666,.F.);
#903=ORIENTED_EDGE('',*,*,#678,.F.);
#904=ORIENTED_EDGE('',*,*,#676,.F.);
#905=ORIENTED_EDGE('',*,*,#674,.F.);
#906=ORIENTED_EDGE('',*,*,#584,.T.);
#907=ORIENTED_EDGE('',*,*,#602,.T.);
#908=ORIENTED_EDGE('',*,*,#608,.T.);
#909=ORIENTED_EDGE('',*,*,#626,.T.);
#910=ORIENTED_EDGE('',*,*,#590,.T.);
#911=ORIENTED_EDGE('',*,*,#596,.T.);
#912=ORIENTED_EDGE('',*,*,#614,.T.);
#913=ORIENTED_EDGE('',*,*,#620,.T.);
#914=ORIENTED_EDGE('',*,*,#633,.F.);
#915=ORIENTED_EDGE('',*,*,#682,.T.);
#916=ORIENTED_EDGE('',*,*,#683,.F.);
#917=ORIENTED_EDGE('',*,*,#682,.F.);
#918=ORIENTED_EDGE('',*,*,#683,.T.);
#919=ORIENTED_EDGE('',*,*,#640,.F.);
#920=ORIENTED_EDGE('',*,*,#684,.T.);
#921=ORIENTED_EDGE('',*,*,#685,.F.);
#922=ORIENTED_EDGE('',*,*,#684,.F.);
#923=ORIENTED_EDGE('',*,*,#685,.T.);
#924=ORIENTED_EDGE('',*,*,#647,.F.);
#925=ORIENTED_EDGE('',*,*,#686,.T.);
#926=ORIENTED_EDGE('',*,*,#687,.F.);
#927=ORIENTED_EDGE('',*,*,#686,.F.);
#928=ORIENTED_EDGE('',*,*,#687,.T.);
#929=ORIENTED_EDGE('',*,*,#688,.T.);
#930=ORIENTED_EDGE('',*,*,#689,.T.);
#931=ORIENTED_EDGE('',*,*,#690,.T.);
#932=ORIENTED_EDGE('',*,*,#689,.F.);
#933=ORIENTED_EDGE('',*,*,#690,.F.);
#934=ORIENTED_EDGE('',*,*,#691,.T.);
#935=ORIENTED_EDGE('',*,*,#692,.T.);
#936=ORIENTED_EDGE('',*,*,#693,.T.);
#937=ORIENTED_EDGE('',*,*,#692,.F.);
#938=ORIENTED_EDGE('',*,*,#693,.F.);
#939=ORIENTED_EDGE('',*,*,#694,.T.);
#940=ORIENTED_EDGE('',*,*,#695,.T.);
#941=ORIENTED_EDGE('',*,*,#696,.T.);
#942=ORIENTED_EDGE('',*,*,#695,.F.);
#943=ORIENTED_EDGE('',*,*,#696,.F.);
#944=ORIENTED_EDGE('',*,*,#697,.T.);
#945=ORIENTED_EDGE('',*,*,#698,.T.);
#946=ORIENTED_EDGE('',*,*,#699,.T.);
#947=ORIENTED_EDGE('',*,*,#698,.F.);
#948=ORIENTED_EDGE('',*,*,#699,.F.);
#949=ORIENTED_EDGE('',*,*,#700,.T.);
#950=ORIENTED_EDGE('',*,*,#701,.T.);
#951=ORIENTED_EDGE('',*,*,#702,.T.);
#952=ORIENTED_EDGE('',*,*,#701,.F.);
#953=ORIENTED_EDGE('',*,*,#702,.F.);
#954=ORIENTED_EDGE('',*,*,#703,.T.);
#955=ORIENTED_EDGE('',*,*,#704,.T.);
#956=ORIENTED_EDGE('',*,*,#705,.T.);
#957=ORIENTED_EDGE('',*,*,#704,.F.);
#958=ORIENTED_EDGE('',*,*,#705,.F.);
#959=ORIENTED_EDGE('',*,*,#706,.T.);
#960=ORIENTED_EDGE('',*,*,#707,.T.);
#961=ORIENTED_EDGE('',*,*,#708,.T.);
#962=ORIENTED_EDGE('',*,*,#707,.F.);
#963=ORIENTED_EDGE('',*,*,#708,.F.);
#964=ORIENTED_EDGE('',*,*,#709,.T.);
#965=ORIENTED_EDGE('',*,*,#710,.T.);
#966=ORIENTED_EDGE('',*,*,#711,.T.);
#967=ORIENTED_EDGE('',*,*,#710,.F.);
#968=ORIENTED_EDGE('',*,*,#711,.F.);
#969=ORIENTED_EDGE('',*,*,#712,.F.);
#970=ORIENTED_EDGE('',*,*,#713,.T.);
#971=ORIENTED_EDGE('',*,*,#714,.T.);
#972=ORIENTED_EDGE('',*,*,#715,.F.);
#973=ORIENTED_EDGE('',*,*,#716,.F.);
#974=ORIENTED_EDGE('',*,*,#717,.T.);
#975=ORIENTED_EDGE('',*,*,#718,.T.);
#976=ORIENTED_EDGE('',*,*,#713,.F.);
#977=ORIENTED_EDGE('',*,*,#719,.F.);
#978=ORIENTED_EDGE('',*,*,#720,.T.);
#979=ORIENTED_EDGE('',*,*,#721,.T.);
#980=ORIENTED_EDGE('',*,*,#717,.F.);
#981=ORIENTED_EDGE('',*,*,#722,.F.);
#982=ORIENTED_EDGE('',*,*,#715,.T.);
#983=ORIENTED_EDGE('',*,*,#723,.T.);
#984=ORIENTED_EDGE('',*,*,#720,.F.);
#985=ORIENTED_EDGE('',*,*,#723,.F.);
#986=ORIENTED_EDGE('',*,*,#714,.F.);
#987=ORIENTED_EDGE('',*,*,#718,.F.);
#988=ORIENTED_EDGE('',*,*,#721,.F.);
#989=ORIENTED_EDGE('',*,*,#639,.T.);
#990=ORIENTED_EDGE('',*,*,#688,.F.);
#991=ORIENTED_EDGE('',*,*,#691,.F.);
#992=ORIENTED_EDGE('',*,*,#694,.F.);
#993=ORIENTED_EDGE('',*,*,#697,.F.);
#994=ORIENTED_EDGE('',*,*,#700,.F.);
#995=ORIENTED_EDGE('',*,*,#703,.F.);
#996=ORIENTED_EDGE('',*,*,#706,.F.);
#997=ORIENTED_EDGE('',*,*,#709,.F.);
#998=ORIENTED_EDGE('',*,*,#646,.T.);
#999=ORIENTED_EDGE('',*,*,#632,.T.);
#1000=ORIENTED_EDGE('',*,*,#652,.F.);
#1001=ORIENTED_EDGE('',*,*,#724,.T.);
#1002=ORIENTED_EDGE('',*,*,#659,.F.);
#1003=ORIENTED_EDGE('',*,*,#679,.F.);
#1004=ORIENTED_EDGE('',*,*,#658,.F.);
#1005=ORIENTED_EDGE('',*,*,#725,.T.);
#1006=ORIENTED_EDGE('',*,*,#673,.F.);
#1007=ORIENTED_EDGE('',*,*,#677,.F.);
#1008=ORIENTED_EDGE('',*,*,#651,.F.);
#1009=ORIENTED_EDGE('',*,*,#680,.F.);
#1010=ORIENTED_EDGE('',*,*,#663,.F.);
#1011=ORIENTED_EDGE('',*,*,#681,.F.);
#1012=ORIENTED_EDGE('',*,*,#671,.F.);
#1013=ORIENTED_EDGE('',*,*,#725,.F.);
#1014=ORIENTED_EDGE('',*,*,#657,.F.);
#1015=ORIENTED_EDGE('',*,*,#724,.F.);
#1016=ORIENTED_EDGE('',*,*,#712,.T.);
#1017=ORIENTED_EDGE('',*,*,#722,.T.);
#1018=ORIENTED_EDGE('',*,*,#719,.T.);
#1019=ORIENTED_EDGE('',*,*,#716,.T.);
#1020=TOROIDAL_SURFACE('',#1123,2.3,0.2);
#1021=TOROIDAL_SURFACE('',#1131,2.3,0.2);
#1022=TOROIDAL_SURFACE('',#1139,2.3,0.2);
#1023=TOROIDAL_SURFACE('',#1147,2.3,0.2);
#1024=TOROIDAL_SURFACE('',#1155,2.3,0.2);
#1025=TOROIDAL_SURFACE('',#1163,2.3,0.2);
#1026=TOROIDAL_SURFACE('',#1171,2.3,0.2);
#1027=TOROIDAL_SURFACE('',#1179,2.3,0.2);
#1028=TOROIDAL_SURFACE('',#1187,2.95,0.2);
#1029=TOROIDAL_SURFACE('',#1196,2.95,0.2);
#1030=TOROIDAL_SURFACE('',#1205,2.95,0.2);
#1031=ADVANCED_FACE('',(#213),#1020,.T.);
#1032=ADVANCED_FACE('',(#214),#183,.T.);
#1033=ADVANCED_FACE('',(#215),#42,.T.);
#1034=ADVANCED_FACE('',(#216),#1021,.T.);
#1035=ADVANCED_FACE('',(#217),#184,.T.);
#1036=ADVANCED_FACE('',(#218),#43,.T.);
#1037=ADVANCED_FACE('',(#219),#1022,.T.);
#1038=ADVANCED_FACE('',(#220),#185,.T.);
#1039=ADVANCED_FACE('',(#221),#44,.T.);
#1040=ADVANCED_FACE('',(#222),#1023,.T.);
#1041=ADVANCED_FACE('',(#223),#186,.T.);
#1042=ADVANCED_FACE('',(#224),#45,.T.);
#1043=ADVANCED_FACE('',(#225),#1024,.T.);
#1044=ADVANCED_FACE('',(#226),#187,.T.);
#1045=ADVANCED_FACE('',(#227),#46,.T.);
#1046=ADVANCED_FACE('',(#228),#1025,.T.);
#1047=ADVANCED_FACE('',(#229),#188,.T.);
#1048=ADVANCED_FACE('',(#230),#47,.T.);
#1049=ADVANCED_FACE('',(#231),#1026,.T.);
#1050=ADVANCED_FACE('',(#232),#189,.T.);
#1051=ADVANCED_FACE('',(#233),#48,.T.);
#1052=ADVANCED_FACE('',(#234),#1027,.T.);
#1053=ADVANCED_FACE('',(#235),#190,.T.);
#1054=ADVANCED_FACE('',(#236),#49,.T.);
#1055=ADVANCED_FACE('',(#237),#1028,.T.);
#1056=ADVANCED_FACE('',(#238),#191,.T.);
#1057=ADVANCED_FACE('',(#239,#19),#50,.T.);
#1058=ADVANCED_FACE('',(#240),#1029,.T.);
#1059=ADVANCED_FACE('',(#241),#192,.T.);
#1060=ADVANCED_FACE('',(#242,#20),#51,.T.);
#1061=ADVANCED_FACE('',(#243),#1030,.T.);
#1062=ADVANCED_FACE('',(#244),#193,.T.);
#1063=ADVANCED_FACE('',(#245,#21),#52,.T.);
#1064=ADVANCED_FACE('',(#246),#15,.T.);
#1065=ADVANCED_FACE('',(#247),#194,.T.);
#1066=ADVANCED_FACE('',(#248),#16,.T.);
#1067=ADVANCED_FACE('',(#249),#195,.T.);
#1068=ADVANCED_FACE('',(#250),#17,.T.);
#1069=ADVANCED_FACE('',(#251),#196,.T.);
#1070=ADVANCED_FACE('',(#252),#197,.T.);
#1071=ADVANCED_FACE('',(#253),#18,.T.);
#1072=ADVANCED_FACE('',(#254),#198,.T.);
#1073=ADVANCED_FACE('',(#255),#199,.T.);
#1074=ADVANCED_FACE('',(#256),#200,.T.);
#1075=ADVANCED_FACE('',(#257),#201,.T.);
#1076=ADVANCED_FACE('',(#258),#53,.T.);
#1077=ADVANCED_FACE('',(#259),#54,.T.);
#1078=ADVANCED_FACE('',(#260,#22,#23,#24,#25,#26,#27,#28,#29),#55,.T.);
#1079=ADVANCED_FACE('',(#261),#202,.F.);
#1080=ADVANCED_FACE('',(#262),#56,.F.);
#1081=ADVANCED_FACE('',(#263),#203,.F.);
#1082=ADVANCED_FACE('',(#264),#57,.F.);
#1083=ADVANCED_FACE('',(#265),#204,.F.);
#1084=ADVANCED_FACE('',(#266),#58,.F.);
#1085=ADVANCED_FACE('',(#267),#205,.F.);
#1086=ADVANCED_FACE('',(#268),#59,.F.);
#1087=ADVANCED_FACE('',(#269),#206,.F.);
#1088=ADVANCED_FACE('',(#270),#60,.F.);
#1089=ADVANCED_FACE('',(#271),#207,.F.);
#1090=ADVANCED_FACE('',(#272),#61,.F.);
#1091=ADVANCED_FACE('',(#273),#208,.F.);
#1092=ADVANCED_FACE('',(#274),#62,.F.);
#1093=ADVANCED_FACE('',(#275),#209,.F.);
#1094=ADVANCED_FACE('',(#276),#63,.F.);
#1095=ADVANCED_FACE('',(#277),#210,.F.);
#1096=ADVANCED_FACE('',(#278),#64,.F.);
#1097=ADVANCED_FACE('',(#279),#211,.F.);
#1098=ADVANCED_FACE('',(#280),#65,.F.);
#1099=ADVANCED_FACE('',(#281),#212,.F.);
#1100=ADVANCED_FACE('',(#282),#66,.F.);
#1101=ADVANCED_FACE('',(#283),#67,.F.);
#1102=ADVANCED_FACE('',(#284),#68,.F.);
#1103=ADVANCED_FACE('',(#285),#69,.F.);
#1104=ADVANCED_FACE('',(#286),#70,.F.);
#1105=ADVANCED_FACE('',(#287,#30,#31,#32,#33,#34,#35,#36,#37,#38,#39,#40),
#71,.F.);
#1106=ADVANCED_FACE('',(#288),#72,.T.);
#1107=ADVANCED_FACE('',(#289),#73,.T.);
#1108=ADVANCED_FACE('',(#290,#41),#74,.F.);
#1109=CLOSED_SHELL('',(#1031,#1032,#1033,#1034,#1035,#1036,#1037,#1038,
#1039,#1040,#1041,#1042,#1043,#1044,#1045,#1046,#1047,#1048,#1049,#1050,
#1051,#1052,#1053,#1054,#1055,#1056,#1057,#1058,#1059,#1060,#1061,#1062,
#1063,#1064,#1065,#1066,#1067,#1068,#1069,#1070,#1071,#1072,#1073,#1074,
#1075,#1076,#1077,#1078,#1079,#1080,#1081,#1082,#1083,#1084,#1085,#1086,
#1087,#1088,#1089,#1090,#1091,#1092,#1093,#1094,#1095,#1096,#1097,#1098,
#1099,#1100,#1101,#1102,#1103,#1104,#1105,#1106,#1107,#1108));
#1110=DERIVED_UNIT_ELEMENT(#1112,1.);
#1111=DERIVED_UNIT_ELEMENT(#2017,-3.);
#1112=(
MASS_UNIT()
NAMED_UNIT(*)
SI_UNIT(.KILO.,.GRAM.)
);
#1113=DERIVED_UNIT((#1110,#1111));
#1114=MEASURE_REPRESENTATION_ITEM('density measure',
POSITIVE_RATIO_MEASURE(7850.),#1113);
#1115=PROPERTY_DEFINITION_REPRESENTATION(#1120,#1117);
#1116=PROPERTY_DEFINITION_REPRESENTATION(#1121,#1118);
#1117=REPRESENTATION('material name',(#1119),#2014);
#1118=REPRESENTATION('density',(#1114),#2014);
#1119=DESCRIPTIVE_REPRESENTATION_ITEM('Steel','Steel');
#1120=PROPERTY_DEFINITION('material property','material name',#2024);
#1121=PROPERTY_DEFINITION('material property','density of part',#2024);
#1122=AXIS2_PLACEMENT_3D('',#1692,#1294,#1295);
#1123=AXIS2_PLACEMENT_3D('',#1693,#1296,#1297);
#1124=AXIS2_PLACEMENT_3D('',#1695,#1298,#1299);
#1125=AXIS2_PLACEMENT_3D('',#1697,#1300,#1301);
#1126=AXIS2_PLACEMENT_3D('',#1699,#1302,#1303);
#1127=AXIS2_PLACEMENT_3D('',#1700,#1304,#1305);
#1128=AXIS2_PLACEMENT_3D('',#1701,#1306,#1307);
#1129=AXIS2_PLACEMENT_3D('',#1704,#1309,#1310);
#1130=AXIS2_PLACEMENT_3D('',#1705,#1311,#1312);
#1131=AXIS2_PLACEMENT_3D('',#1706,#1313,#1314);
#1132=AXIS2_PLACEMENT_3D('',#1708,#1315,#1316);
#1133=AXIS2_PLACEMENT_3D('',#1710,#1317,#1318);
#1134=AXIS2_PLACEMENT_3D('',#1712,#1319,#1320);
#1135=AXIS2_PLACEMENT_3D('',#1713,#1321,#1322);
#1136=AXIS2_PLACEMENT_3D('',#1714,#1323,#1324);
#1137=AXIS2_PLACEMENT_3D('',#1717,#1326,#1327);
#1138=AXIS2_PLACEMENT_3D('',#1718,#1328,#1329);
#1139=AXIS2_PLACEMENT_3D('',#1719,#1330,#1331);
#1140=AXIS2_PLACEMENT_3D('',#1721,#1332,#1333);
#1141=AXIS2_PLACEMENT_3D('',#1723,#1334,#1335);
#1142=AXIS2_PLACEMENT_3D('',#1725,#1336,#1337);
#1143=AXIS2_PLACEMENT_3D('',#1726,#1338,#1339);
#1144=AXIS2_PLACEMENT_3D('',#1727,#1340,#1341);
#1145=AXIS2_PLACEMENT_3D('',#1730,#1343,#1344);
#1146=AXIS2_PLACEMENT_3D('',#1731,#1345,#1346);
#1147=AXIS2_PLACEMENT_3D('',#1732,#1347,#1348);
#1148=AXIS2_PLACEMENT_3D('',#1734,#1349,#1350);
#1149=AXIS2_PLACEMENT_3D('',#1736,#1351,#1352);
#1150=AXIS2_PLACEMENT_3D('',#1738,#1353,#1354);
#1151=AXIS2_PLACEMENT_3D('',#1739,#1355,#1356);
#1152=AXIS2_PLACEMENT_3D('',#1740,#1357,#1358);
#1153=AXIS2_PLACEMENT_3D('',#1743,#1360,#1361);
#1154=AXIS2_PLACEMENT_3D('',#1744,#1362,#1363);
#1155=AXIS2_PLACEMENT_3D('',#1745,#1364,#1365);
#1156=AXIS2_PLACEMENT_3D('',#1747,#1366,#1367);
#1157=AXIS2_PLACEMENT_3D('',#1749,#1368,#1369);
#1158=AXIS2_PLACEMENT_3D('',#1751,#1370,#1371);
#1159=AXIS2_PLACEMENT_3D('',#1752,#1372,#1373);
#1160=AXIS2_PLACEMENT_3D('',#1753,#1374,#1375);
#1161=AXIS2_PLACEMENT_3D('',#1756,#1377,#1378);
#1162=AXIS2_PLACEMENT_3D('',#1757,#1379,#1380);
#1163=AXIS2_PLACEMENT_3D('',#1758,#1381,#1382);
#1164=AXIS2_PLACEMENT_3D('',#1760,#1383,#1384);
#1165=AXIS2_PLACEMENT_3D('',#1762,#1385,#1386);
#1166=AXIS2_PLACEMENT_3D('',#1764,#1387,#1388);
#1167=AXIS2_PLACEMENT_3D('',#1765,#1389,#1390);
#1168=AXIS2_PLACEMENT_3D('',#1766,#1391,#1392);
#1169=AXIS2_PLACEMENT_3D('',#1769,#1394,#1395);
#1170=AXIS2_PLACEMENT_3D('',#1770,#1396,#1397);
#1171=AXIS2_PLACEMENT_3D('',#1771,#1398,#1399);
#1172=AXIS2_PLACEMENT_3D('',#1773,#1400,#1401);
#1173=AXIS2_PLACEMENT_3D('',#1775,#1402,#1403);
#1174=AXIS2_PLACEMENT_3D('',#1777,#1404,#1405);
#1175=AXIS2_PLACEMENT_3D('',#1778,#1406,#1407);
#1176=AXIS2_PLACEMENT_3D('',#1779,#1408,#1409);
#1177=AXIS2_PLACEMENT_3D('',#1782,#1411,#1412);
#1178=AXIS2_PLACEMENT_3D('',#1783,#1413,#1414);
#1179=AXIS2_PLACEMENT_3D('',#1784,#1415,#1416);
#1180=AXIS2_PLACEMENT_3D('',#1786,#1417,#1418);
#1181=AXIS2_PLACEMENT_3D('',#1788,#1419,#1420);
#1182=AXIS2_PLACEMENT_3D('',#1790,#1421,#1422);
#1183=AXIS2_PLACEMENT_3D('',#1791,#1423,#1424);
#1184=AXIS2_PLACEMENT_3D('',#1792,#1425,#1426);
#1185=AXIS2_PLACEMENT_3D('',#1795,#1428,#1429);
#1186=AXIS2_PLACEMENT_3D('',#1796,#1430,#1431);
#1187=AXIS2_PLACEMENT_3D('',#1797,#1432,#1433);
#1188=AXIS2_PLACEMENT_3D('',#1799,#1434,#1435);
#1189=AXIS2_PLACEMENT_3D('',#1801,#1436,#1437);
#1190=AXIS2_PLACEMENT_3D('',#1803,#1438,#1439);
#1191=AXIS2_PLACEMENT_3D('',#1804,#1440,#1441);
#1192=AXIS2_PLACEMENT_3D('',#1805,#1442,#1443);
#1193=AXIS2_PLACEMENT_3D('',#1808,#1445,#1446);
#1194=AXIS2_PLACEMENT_3D('',#1809,#1447,#1448);
#1195=AXIS2_PLACEMENT_3D('',#1811,#1449,#1450);
#1196=AXIS2_PLACEMENT_3D('',#1812,#1451,#1452);
#1197=AXIS2_PLACEMENT_3D('',#1814,#1453,#1454);
#1198=AXIS2_PLACEMENT_3D('',#1816,#1455,#1456);
#1199=AXIS2_PLACEMENT_3D('',#1818,#1457,#1458);
#1200=AXIS2_PLACEMENT_3D('',#1819,#1459,#1460);
#1201=AXIS2_PLACEMENT_3D('',#1820,#1461,#1462);
#1202=AXIS2_PLACEMENT_3D('',#1823,#1464,#1465);
#1203=AXIS2_PLACEMENT_3D('',#1824,#1466,#1467);
#1204=AXIS2_PLACEMENT_3D('',#1826,#1468,#1469);
#1205=AXIS2_PLACEMENT_3D('',#1827,#1470,#1471);
#1206=AXIS2_PLACEMENT_3D('',#1829,#1472,#1473);
#1207=AXIS2_PLACEMENT_3D('',#1831,#1474,#1475);
#1208=AXIS2_PLACEMENT_3D('',#1833,#1476,#1477);
#1209=AXIS2_PLACEMENT_3D('',#1834,#1478,#1479);
#1210=AXIS2_PLACEMENT_3D('',#1835,#1480,#1481);
#1211=AXIS2_PLACEMENT_3D('',#1838,#1483,#1484);
#1212=AXIS2_PLACEMENT_3D('',#1839,#1485,#1486);
#1213=AXIS2_PLACEMENT_3D('',#1841,#1487,#1488);
#1214=AXIS2_PLACEMENT_3D('',#1842,#1489,#1490);
#1215=AXIS2_PLACEMENT_3D('',#1845,#1491,#1492);
#1216=AXIS2_PLACEMENT_3D('',#1847,#1493,#1494);
#1217=AXIS2_PLACEMENT_3D('',#1848,#1495,#1496);
#1218=AXIS2_PLACEMENT_3D('',#1849,#1497,#1498);
#1219=AXIS2_PLACEMENT_3D('',#1852,#1499,#1500);
#1220=AXIS2_PLACEMENT_3D('',#1855,#1503,#1504);
#1221=AXIS2_PLACEMENT_3D('',#1858,#1505,#1506);
#1222=AXIS2_PLACEMENT_3D('',#1860,#1507,#1508);
#1223=AXIS2_PLACEMENT_3D('',#1861,#1509,#1510);
#1224=AXIS2_PLACEMENT_3D('',#1862,#1511,#1512);
#1225=AXIS2_PLACEMENT_3D('',#1865,#1513,#1514);
#1226=AXIS2_PLACEMENT_3D('',#1868,#1517,#1518);
#1227=AXIS2_PLACEMENT_3D('',#1871,#1519,#1520);
#1228=AXIS2_PLACEMENT_3D('',#1873,#1521,#1522);
#1229=AXIS2_PLACEMENT_3D('',#1874,#1523,#1524);
#1230=AXIS2_PLACEMENT_3D('',#1875,#1525,#1526);
#1231=AXIS2_PLACEMENT_3D('',#1878,#1527,#1528);
#1232=AXIS2_PLACEMENT_3D('',#1881,#1531,#1532);
#1233=AXIS2_PLACEMENT_3D('',#1884,#1535,#1536);
#1234=AXIS2_PLACEMENT_3D('',#1887,#1537,#1538);
#1235=AXIS2_PLACEMENT_3D('',#1889,#1539,#1540);
#1236=AXIS2_PLACEMENT_3D('',#1890,#1541,#1542);
#1237=AXIS2_PLACEMENT_3D('',#1891,#1543,#1544);
#1238=AXIS2_PLACEMENT_3D('',#1894,#1545,#1546);
#1239=AXIS2_PLACEMENT_3D('',#1897,#1549,#1550);
#1240=AXIS2_PLACEMENT_3D('',#1900,#1553,#1554);
#1241=AXIS2_PLACEMENT_3D('',#1903,#1557,#1558);
#1242=AXIS2_PLACEMENT_3D('',#1906,#1561,#1562);
#1243=AXIS2_PLACEMENT_3D('',#1908,#1564,#1565);
#1244=AXIS2_PLACEMENT_3D('',#1910,#1567,#1568);
#1245=AXIS2_PLACEMENT_3D('',#1911,#1569,#1570);
#1246=AXIS2_PLACEMENT_3D('',#1914,#1572,#1573);
#1247=AXIS2_PLACEMENT_3D('',#1915,#1574,#1575);
#1248=AXIS2_PLACEMENT_3D('',#1916,#1576,#1577);
#1249=AXIS2_PLACEMENT_3D('',#1919,#1579,#1580);
#1250=AXIS2_PLACEMENT_3D('',#1920,#1581,#1582);
#1251=AXIS2_PLACEMENT_3D('',#1921,#1583,#1584);
#1252=AXIS2_PLACEMENT_3D('',#1924,#1586,#1587);
#1253=AXIS2_PLACEMENT_3D('',#1925,#1588,#1589);
#1254=AXIS2_PLACEMENT_3D('',#1926,#1590,#1591);
#1255=AXIS2_PLACEMENT_3D('',#1928,#1592,#1593);
#1256=AXIS2_PLACEMENT_3D('',#1931,#1595,#1596);
#1257=AXIS2_PLACEMENT_3D('',#1932,#1597,#1598);
#1258=AXIS2_PLACEMENT_3D('',#1933,#1599,#1600);
#1259=AXIS2_PLACEMENT_3D('',#1935,#1601,#1602);
#1260=AXIS2_PLACEMENT_3D('',#1938,#1604,#1605);
#1261=AXIS2_PLACEMENT_3D('',#1939,#1606,#1607);
#1262=AXIS2_PLACEMENT_3D('',#1940,#1608,#1609);
#1263=AXIS2_PLACEMENT_3D('',#1942,#1610,#1611);
#1264=AXIS2_PLACEMENT_3D('',#1945,#1613,#1614);
#1265=AXIS2_PLACEMENT_3D('',#1946,#1615,#1616);
#1266=AXIS2_PLACEMENT_3D('',#1947,#1617,#1618);
#1267=AXIS2_PLACEMENT_3D('',#1949,#1619,#1620);
#1268=AXIS2_PLACEMENT_3D('',#1952,#1622,#1623);
#1269=AXIS2_PLACEMENT_3D('',#1953,#1624,#1625);
#1270=AXIS2_PLACEMENT_3D('',#1954,#1626,#1627);
#1271=AXIS2_PLACEMENT_3D('',#1956,#1628,#1629);
#1272=AXIS2_PLACEMENT_3D('',#1959,#1631,#1632);
#1273=AXIS2_PLACEMENT_3D('',#1960,#1633,#1634);
#1274=AXIS2_PLACEMENT_3D('',#1961,#1635,#1636);
#1275=AXIS2_PLACEMENT_3D('',#1963,#1637,#1638);
#1276=AXIS2_PLACEMENT_3D('',#1966,#1640,#1641);
#1277=AXIS2_PLACEMENT_3D('',#1967,#1642,#1643);
#1278=AXIS2_PLACEMENT_3D('',#1968,#1644,#1645);
#1279=AXIS2_PLACEMENT_3D('',#1970,#1646,#1647);
#1280=AXIS2_PLACEMENT_3D('',#1973,#1649,#1650);
#1281=AXIS2_PLACEMENT_3D('',#1974,#1651,#1652);
#1282=AXIS2_PLACEMENT_3D('',#1975,#1653,#1654);
#1283=AXIS2_PLACEMENT_3D('',#1977,#1655,#1656);
#1284=AXIS2_PLACEMENT_3D('',#1980,#1658,#1659);
#1285=AXIS2_PLACEMENT_3D('',#1981,#1660,#1661);
#1286=AXIS2_PLACEMENT_3D('',#1982,#1662,#1663);
#1287=AXIS2_PLACEMENT_3D('',#1991,#1668,#1669);
#1288=AXIS2_PLACEMENT_3D('',#1997,#1673,#1674);
#1289=AXIS2_PLACEMENT_3D('',#2003,#1678,#1679);
#1290=AXIS2_PLACEMENT_3D('',#2006,#1682,#1683);
#1291=AXIS2_PLACEMENT_3D('',#2007,#1684,#1685);
#1292=AXIS2_PLACEMENT_3D('',#2009,#1687,#1688);
#1293=AXIS2_PLACEMENT_3D('',#2011,#1690,#1691);
#1294=DIRECTION('axis',(0.,0.,1.));
#1295=DIRECTION('refdir',(1.,0.,0.));
#1296=DIRECTION('center_axis',(0.,1.,0.));
#1297=DIRECTION('ref_axis',(0.,0.,1.));
#1298=DIRECTION('center_axis',(0.,-1.,0.));
#1299=DIRECTION('ref_axis',(-1.,0.,0.));
#1300=DIRECTION('center_axis',(-1.,0.,0.));
#1301=DIRECTION('ref_axis',(0.,0.,-1.));
#1302=DIRECTION('center_axis',(0.,1.,0.));
#1303=DIRECTION('ref_axis',(-1.,0.,0.));
#1304=DIRECTION('center_axis',(0.,1.,0.));
#1305=DIRECTION('ref_axis',(-1.,0.,0.));
#1306=DIRECTION('center_axis',(0.,1.,0.));
#1307=DIRECTION('ref_axis',(-1.,0.,0.));
#1308=DIRECTION('',(0.,-1.,0.));
#1309=DIRECTION('center_axis',(0.,-1.,0.));
#1310=DIRECTION('ref_axis',(-1.,0.,0.));
#1311=DIRECTION('center_axis',(0.,1.,0.));
#1312=DIRECTION('ref_axis',(-1.,0.,0.));
#1313=DIRECTION('center_axis',(0.,1.,0.));
#1314=DIRECTION('ref_axis',(0.,0.,1.));
#1315=DIRECTION('center_axis',(0.,-1.,0.));
#1316=DIRECTION('ref_axis',(-1.,0.,0.));
#1317=DIRECTION('center_axis',(-1.,0.,0.));
#1318=DIRECTION('ref_axis',(0.,0.,-1.));
#1319=DIRECTION('center_axis',(0.,1.,0.));
#1320=DIRECTION('ref_axis',(-1.,0.,0.));
#1321=DIRECTION('center_axis',(0.,1.,0.));
#1322=DIRECTION('ref_axis',(-1.,0.,0.));
#1323=DIRECTION('center_axis',(0.,1.,0.));
#1324=DIRECTION('ref_axis',(-1.,0.,0.));
#1325=DIRECTION('',(0.,-1.,0.));
#1326=DIRECTION('center_axis',(0.,-1.,0.));
#1327=DIRECTION('ref_axis',(-1.,0.,0.));
#1328=DIRECTION('center_axis',(0.,1.,0.));
#1329=DIRECTION('ref_axis',(-1.,0.,0.));
#1330=DIRECTION('center_axis',(0.,1.,0.));
#1331=DIRECTION('ref_axis',(0.,0.,1.));
#1332=DIRECTION('center_axis',(0.,-1.,0.));
#1333=DIRECTION('ref_axis',(-1.,0.,0.));
#1334=DIRECTION('center_axis',(-1.,0.,0.));
#1335=DIRECTION('ref_axis',(0.,0.,-1.));
#1336=DIRECTION('center_axis',(0.,1.,0.));
#1337=DIRECTION('ref_axis',(-1.,0.,0.));
#1338=DIRECTION('center_axis',(0.,1.,0.));
#1339=DIRECTION('ref_axis',(-1.,0.,0.));
#1340=DIRECTION('center_axis',(0.,1.,0.));
#1341=DIRECTION('ref_axis',(-1.,0.,0.));
#1342=DIRECTION('',(0.,-1.,0.));
#1343=DIRECTION('center_axis',(0.,-1.,0.));
#1344=DIRECTION('ref_axis',(-1.,0.,0.));
#1345=DIRECTION('center_axis',(0.,1.,0.));
#1346=DIRECTION('ref_axis',(-1.,0.,0.));
#1347=DIRECTION('center_axis',(0.,1.,0.));
#1348=DIRECTION('ref_axis',(0.,0.,1.));
#1349=DIRECTION('center_axis',(0.,-1.,0.));
#1350=DIRECTION('ref_axis',(-1.,0.,0.));
#1351=DIRECTION('center_axis',(-1.,0.,0.));
#1352=DIRECTION('ref_axis',(0.,0.,-1.));
#1353=DIRECTION('center_axis',(0.,1.,0.));
#1354=DIRECTION('ref_axis',(-1.,0.,0.));
#1355=DIRECTION('center_axis',(0.,1.,0.));
#1356=DIRECTION('ref_axis',(-1.,0.,0.));
#1357=DIRECTION('center_axis',(0.,1.,0.));
#1358=DIRECTION('ref_axis',(-1.,0.,0.));
#1359=DIRECTION('',(0.,-1.,0.));
#1360=DIRECTION('center_axis',(0.,-1.,0.));
#1361=DIRECTION('ref_axis',(-1.,0.,0.));
#1362=DIRECTION('center_axis',(0.,1.,0.));
#1363=DIRECTION('ref_axis',(-1.,0.,0.));
#1364=DIRECTION('center_axis',(0.,1.,0.));
#1365=DIRECTION('ref_axis',(0.,0.,1.));
#1366=DIRECTION('center_axis',(0.,-1.,0.));
#1367=DIRECTION('ref_axis',(-1.,0.,0.));
#1368=DIRECTION('center_axis',(-1.,0.,0.));
#1369=DIRECTION('ref_axis',(0.,0.,-1.));
#1370=DIRECTION('center_axis',(0.,1.,0.));
#1371=DIRECTION('ref_axis',(-1.,0.,0.));
#1372=DIRECTION('center_axis',(0.,1.,0.));
#1373=DIRECTION('ref_axis',(-1.,0.,0.));
#1374=DIRECTION('center_axis',(0.,1.,0.));
#1375=DIRECTION('ref_axis',(-1.,0.,0.));
#1376=DIRECTION('',(0.,-1.,0.));
#1377=DIRECTION('center_axis',(0.,-1.,0.));
#1378=DIRECTION('ref_axis',(-1.,0.,0.));
#1379=DIRECTION('center_axis',(0.,1.,0.));
#1380=DIRECTION('ref_axis',(-1.,0.,0.));
#1381=DIRECTION('center_axis',(0.,1.,0.));
#1382=DIRECTION('ref_axis',(0.,0.,1.));
#1383=DIRECTION('center_axis',(0.,-1.,0.));
#1384=DIRECTION('ref_axis',(-1.,0.,0.));
#1385=DIRECTION('center_axis',(-1.,0.,0.));
#1386=DIRECTION('ref_axis',(0.,0.,-1.));
#1387=DIRECTION('center_axis',(0.,1.,0.));
#1388=DIRECTION('ref_axis',(-1.,0.,0.));
#1389=DIRECTION('center_axis',(0.,1.,0.));
#1390=DIRECTION('ref_axis',(-1.,0.,0.));
#1391=DIRECTION('center_axis',(0.,1.,0.));
#1392=DIRECTION('ref_axis',(-1.,0.,0.));
#1393=DIRECTION('',(0.,-1.,0.));
#1394=DIRECTION('center_axis',(0.,-1.,0.));
#1395=DIRECTION('ref_axis',(-1.,0.,0.));
#1396=DIRECTION('center_axis',(0.,1.,0.));
#1397=DIRECTION('ref_axis',(-1.,0.,0.));
#1398=DIRECTION('center_axis',(0.,1.,0.));
#1399=DIRECTION('ref_axis',(0.,0.,1.));
#1400=DIRECTION('center_axis',(0.,-1.,0.));
#1401=DIRECTION('ref_axis',(-1.,0.,0.));
#1402=DIRECTION('center_axis',(-1.,0.,2.22044604925031E-16));
#1403=DIRECTION('ref_axis',(-2.22044604925031E-16,0.,-1.));
#1404=DIRECTION('center_axis',(0.,1.,0.));
#1405=DIRECTION('ref_axis',(-1.,0.,0.));
#1406=DIRECTION('center_axis',(0.,1.,0.));
#1407=DIRECTION('ref_axis',(-1.,0.,0.));
#1408=DIRECTION('center_axis',(0.,1.,0.));
#1409=DIRECTION('ref_axis',(-1.,0.,0.));
#1410=DIRECTION('',(0.,-1.,0.));
#1411=DIRECTION('center_axis',(0.,-1.,0.));
#1412=DIRECTION('ref_axis',(-1.,0.,0.));
#1413=DIRECTION('center_axis',(0.,1.,0.));
#1414=DIRECTION('ref_axis',(-1.,0.,0.));
#1415=DIRECTION('center_axis',(0.,1.,0.));
#1416=DIRECTION('ref_axis',(0.,0.,1.));
#1417=DIRECTION('center_axis',(0.,-1.,0.));
#1418=DIRECTION('ref_axis',(-1.,0.,0.));
#1419=DIRECTION('center_axis',(-1.,0.,2.22044604925031E-16));
#1420=DIRECTION('ref_axis',(-2.22044604925031E-16,0.,-1.));
#1421=DIRECTION('center_axis',(0.,1.,0.));
#1422=DIRECTION('ref_axis',(-1.,0.,0.));
#1423=DIRECTION('center_axis',(0.,1.,0.));
#1424=DIRECTION('ref_axis',(-1.,0.,0.));
#1425=DIRECTION('center_axis',(0.,1.,0.));
#1426=DIRECTION('ref_axis',(-1.,0.,0.));
#1427=DIRECTION('',(0.,-1.,0.));
#1428=DIRECTION('center_axis',(0.,-1.,0.));
#1429=DIRECTION('ref_axis',(-1.,0.,0.));
#1430=DIRECTION('center_axis',(0.,1.,0.));
#1431=DIRECTION('ref_axis',(-1.,0.,0.));
#1432=DIRECTION('center_axis',(0.,-1.,0.));
#1433=DIRECTION('ref_axis',(0.,0.,-1.));
#1434=DIRECTION('center_axis',(0.,1.,0.));
#1435=DIRECTION('ref_axis',(1.,0.,0.));
#1436=DIRECTION('center_axis',(-1.,0.,0.));
#1437=DIRECTION('ref_axis',(0.,0.,1.));
#1438=DIRECTION('center_axis',(0.,-1.,0.));
#1439=DIRECTION('ref_axis',(1.,0.,0.));
#1440=DIRECTION('center_axis',(0.,-1.,0.));
#1441=DIRECTION('ref_axis',(1.,0.,0.));
#1442=DIRECTION('center_axis',(0.,-1.,0.));
#1443=DIRECTION('ref_axis',(1.,0.,0.));
#1444=DIRECTION('',(0.,1.,0.));
#1445=DIRECTION('center_axis',(0.,1.,0.));
#1446=DIRECTION('ref_axis',(1.,0.,0.));
#1447=DIRECTION('center_axis',(0.,-1.,0.));
#1448=DIRECTION('ref_axis',(1.,0.,0.));
#1449=DIRECTION('center_axis',(0.,1.,0.));
#1450=DIRECTION('ref_axis',(1.,0.,0.));
#1451=DIRECTION('center_axis',(0.,-1.,0.));
#1452=DIRECTION('ref_axis',(0.,0.,-1.));
#1453=DIRECTION('center_axis',(0.,1.,0.));
#1454=DIRECTION('ref_axis',(1.,0.,0.));
#1455=DIRECTION('center_axis',(-1.,0.,0.));
#1456=DIRECTION('ref_axis',(0.,0.,1.));
#1457=DIRECTION('center_axis',(0.,-1.,0.));
#1458=DIRECTION('ref_axis',(1.,0.,0.));
#1459=DIRECTION('center_axis',(0.,-1.,0.));
#1460=DIRECTION('ref_axis',(1.,0.,0.));
#1461=DIRECTION('center_axis',(0.,-1.,0.));
#1462=DIRECTION('ref_axis',(1.,0.,0.));
#1463=DIRECTION('',(0.,1.,0.));
#1464=DIRECTION('center_axis',(0.,1.,0.));
#1465=DIRECTION('ref_axis',(1.,0.,0.));
#1466=DIRECTION('center_axis',(0.,-1.,0.));
#1467=DIRECTION('ref_axis',(1.,0.,0.));
#1468=DIRECTION('center_axis',(0.,1.,0.));
#1469=DIRECTION('ref_axis',(1.,0.,0.));
#1470=DIRECTION('center_axis',(0.,-1.,0.));
#1471=DIRECTION('ref_axis',(0.,0.,-1.));
#1472=DIRECTION('center_axis',(0.,1.,0.));
#1473=DIRECTION('ref_axis',(1.,0.,0.));
#1474=DIRECTION('center_axis',(-1.,0.,0.));
#1475=DIRECTION('ref_axis',(0.,0.,1.));
#1476=DIRECTION('center_axis',(0.,-1.,0.));
#1477=DIRECTION('ref_axis',(1.,0.,0.));
#1478=DIRECTION('center_axis',(0.,-1.,0.));
#1479=DIRECTION('ref_axis',(1.,0.,0.));
#1480=DIRECTION('center_axis',(0.,-1.,0.));
#1481=DIRECTION('ref_axis',(1.,0.,0.));
#1482=DIRECTION('',(0.,1.,0.));
#1483=DIRECTION('center_axis',(0.,1.,0.));
#1484=DIRECTION('ref_axis',(1.,0.,0.));
#1485=DIRECTION('center_axis',(0.,-1.,0.));
#1486=DIRECTION('ref_axis',(1.,0.,0.));
#1487=DIRECTION('center_axis',(0.,1.,0.));
#1488=DIRECTION('ref_axis',(1.,0.,0.));
#1489=DIRECTION('center_axis',(0.40824829046386,-0.816496580927729,-0.40824829046386));
#1490=DIRECTION('ref_axis',(0.577350269189626,0.577350269189626,-0.577350269189626));
#1491=DIRECTION('center_axis',(0.,0.,-1.));
#1492=DIRECTION('ref_axis',(1.,0.,0.));
#1493=DIRECTION('center_axis',(0.,1.,0.));
#1494=DIRECTION('ref_axis',(0.,0.,-1.));
#1495=DIRECTION('center_axis',(1.,0.,0.));
#1496=DIRECTION('ref_axis',(0.,1.,0.));
#1497=DIRECTION('center_axis',(0.,1.,0.));
#1498=DIRECTION('ref_axis',(0.70710678118654,0.,-0.707106781186555));
#1499=DIRECTION('center_axis',(0.,1.,0.));
#1500=DIRECTION('ref_axis',(0.70710678118654,0.,-0.707106781186555));
#1501=DIRECTION('',(0.,1.,0.));
#1502=DIRECTION('',(0.,-1.,0.));
#1503=DIRECTION('center_axis',(-0.408248290463863,-0.816496580927728,-0.408248290463859));
#1504=DIRECTION('ref_axis',(-0.577350269189628,0.577350269189625,-0.577350269189625));
#1505=DIRECTION('center_axis',(-1.,0.,0.));
#1506=DIRECTION('ref_axis',(0.,0.,-1.));
#1507=DIRECTION('center_axis',(0.,1.,0.));
#1508=DIRECTION('ref_axis',(-1.,0.,0.));
#1509=DIRECTION('center_axis',(0.,0.,-1.));
#1510=DIRECTION('ref_axis',(0.,1.,0.));
#1511=DIRECTION('center_axis',(0.,1.,0.));
#1512=DIRECTION('ref_axis',(-0.707106781186548,0.,-0.707106781186548));
#1513=DIRECTION('center_axis',(0.,1.,0.));
#1514=DIRECTION('ref_axis',(-0.707106781186548,0.,-0.707106781186548));
#1515=DIRECTION('',(0.,1.,0.));
#1516=DIRECTION('',(0.,-1.,0.));
#1517=DIRECTION('center_axis',(-0.816496580927722,0.40824829046387,0.408248290463865));
#1518=DIRECTION('ref_axis',(0.577350269189625,0.577350269189625,0.577350269189628));
#1519=DIRECTION('center_axis',(1.,0.,0.));
#1520=DIRECTION('ref_axis',(0.,0.,1.));
#1521=DIRECTION('center_axis',(0.,1.,0.));
#1522=DIRECTION('ref_axis',(1.,0.,0.));
#1523=DIRECTION('center_axis',(0.,0.,1.));
#1524=DIRECTION('ref_axis',(0.,1.,0.));
#1525=DIRECTION('center_axis',(0.,1.,0.));
#1526=DIRECTION('ref_axis',(0.70710678118654,0.,0.707106781186555));
#1527=DIRECTION('center_axis',(0.,1.,0.));
#1528=DIRECTION('ref_axis',(0.70710678118654,0.,0.707106781186555));
#1529=DIRECTION('',(0.,1.,0.));
#1530=DIRECTION('',(0.,-1.,0.));
#1531=DIRECTION('center_axis',(0.,0.,-1.));
#1532=DIRECTION('ref_axis',(0.70710678118654,0.707106781186555,0.));
#1533=DIRECTION('',(0.,0.,1.));
#1534=DIRECTION('',(0.,0.,-1.));
#1535=DIRECTION('center_axis',(-0.408248290463862,-0.816496580927726,0.408248290463863));
#1536=DIRECTION('ref_axis',(-0.577350269189626,0.577350269189624,0.577350269189628));
#1537=DIRECTION('center_axis',(0.,0.,1.));
#1538=DIRECTION('ref_axis',(-1.,0.,0.));
#1539=DIRECTION('center_axis',(0.,1.,0.));
#1540=DIRECTION('ref_axis',(0.,0.,1.));
#1541=DIRECTION('center_axis',(-1.,0.,0.));
#1542=DIRECTION('ref_axis',(0.,1.,0.));
#1543=DIRECTION('center_axis',(0.,1.,0.));
#1544=DIRECTION('ref_axis',(-0.707106781186547,0.,0.707106781186548));
#1545=DIRECTION('center_axis',(0.,1.,0.));
#1546=DIRECTION('ref_axis',(-0.707106781186547,0.,0.707106781186548));
#1547=DIRECTION('',(0.,1.,0.));
#1548=DIRECTION('',(0.,-1.,0.));
#1549=DIRECTION('center_axis',(1.,0.,0.));
#1550=DIRECTION('ref_axis',(0.,0.707106781186548,0.707106781186548));
#1551=DIRECTION('',(-1.,0.,0.));
#1552=DIRECTION('',(1.,0.,0.));
#1553=DIRECTION('center_axis',(0.,0.,1.));
#1554=DIRECTION('ref_axis',(-0.707106781186548,0.707106781186548,0.));
#1555=DIRECTION('',(0.,0.,-1.));
#1556=DIRECTION('',(0.,0.,1.));
#1557=DIRECTION('center_axis',(-1.,0.,0.));
#1558=DIRECTION('ref_axis',(0.,0.707106781186548,-0.707106781186548));
#1559=DIRECTION('',(1.,0.,0.));
#1560=DIRECTION('',(-1.,0.,0.));
#1561=DIRECTION('center_axis',(1.,0.,0.));
#1562=DIRECTION('ref_axis',(0.,0.,-1.));
#1563=DIRECTION('',(0.,0.,-1.));
#1564=DIRECTION('center_axis',(0.,0.,1.));
#1565=DIRECTION('ref_axis',(1.,0.,0.));
#1566=DIRECTION('',(1.,0.,0.));
#1567=DIRECTION('center_axis',(0.,1.,0.));
#1568=DIRECTION('ref_axis',(0.,0.,1.));
#1569=DIRECTION('center_axis',(0.,-1.,0.));
#1570=DIRECTION('ref_axis',(1.,0.,0.));
#1571=DIRECTION('',(0.,1.,0.));
#1572=DIRECTION('center_axis',(0.,-1.,0.));
#1573=DIRECTION('ref_axis',(1.,0.,0.));
#1574=DIRECTION('center_axis',(0.,1.,0.));
#1575=DIRECTION('ref_axis',(0.,0.,1.));
#1576=DIRECTION('center_axis',(0.,-1.,0.));
#1577=DIRECTION('ref_axis',(1.,0.,0.));
#1578=DIRECTION('',(0.,1.,0.));
#1579=DIRECTION('center_axis',(0.,-1.,0.));
#1580=DIRECTION('ref_axis',(1.,0.,0.));
#1581=DIRECTION('center_axis',(0.,1.,0.));
#1582=DIRECTION('ref_axis',(0.,0.,1.));
#1583=DIRECTION('center_axis',(0.,-1.,0.));
#1584=DIRECTION('ref_axis',(1.,0.,0.));
#1585=DIRECTION('',(0.,1.,0.));
#1586=DIRECTION('center_axis',(0.,-1.,0.));
#1587=DIRECTION('ref_axis',(1.,0.,0.));
#1588=DIRECTION('center_axis',(0.,1.,0.));
#1589=DIRECTION('ref_axis',(0.,0.,1.));
#1590=DIRECTION('center_axis',(0.,1.,0.));
#1591=DIRECTION('ref_axis',(-1.,0.,0.));
#1592=DIRECTION('center_axis',(0.,-1.,0.));
#1593=DIRECTION('ref_axis',(-1.,0.,0.));
#1594=DIRECTION('',(0.,1.,0.));
#1595=DIRECTION('center_axis',(0.,-1.,0.));
#1596=DIRECTION('ref_axis',(-1.,0.,0.));
#1597=DIRECTION('center_axis',(0.,1.,0.));
#1598=DIRECTION('ref_axis',(-1.,0.,0.));
#1599=DIRECTION('center_axis',(0.,1.,0.));
#1600=DIRECTION('ref_axis',(-1.,0.,0.));
#1601=DIRECTION('center_axis',(0.,-1.,0.));
#1602=DIRECTION('ref_axis',(-1.,0.,0.));
#1603=DIRECTION('',(0.,1.,0.));
#1604=DIRECTION('center_axis',(0.,-1.,0.));
#1605=DIRECTION('ref_axis',(-1.,0.,0.));
#1606=DIRECTION('center_axis',(0.,1.,0.));
#1607=DIRECTION('ref_axis',(-1.,0.,0.));
#1608=DIRECTION('center_axis',(0.,1.,0.));
#1609=DIRECTION('ref_axis',(-1.,0.,0.));
#1610=DIRECTION('center_axis',(0.,-1.,0.));
#1611=DIRECTION('ref_axis',(-1.,0.,0.));
#1612=DIRECTION('',(0.,1.,0.));
#1613=DIRECTION('center_axis',(0.,-1.,0.));
#1614=DIRECTION('ref_axis',(-1.,0.,0.));
#1615=DIRECTION('center_axis',(0.,1.,0.));
#1616=DIRECTION('ref_axis',(-1.,0.,0.));
#1617=DIRECTION('center_axis',(0.,1.,0.));
#1618=DIRECTION('ref_axis',(-1.,0.,0.));
#1619=DIRECTION('center_axis',(0.,-1.,0.));
#1620=DIRECTION('ref_axis',(-1.,0.,0.));
#1621=DIRECTION('',(0.,1.,0.));
#1622=DIRECTION('center_axis',(0.,-1.,0.));
#1623=DIRECTION('ref_axis',(-1.,0.,0.));
#1624=DIRECTION('center_axis',(0.,1.,0.));
#1625=DIRECTION('ref_axis',(-1.,0.,0.));
#1626=DIRECTION('center_axis',(0.,1.,0.));
#1627=DIRECTION('ref_axis',(-1.,0.,0.));
#1628=DIRECTION('center_axis',(0.,-1.,0.));
#1629=DIRECTION('ref_axis',(-1.,0.,0.));
#1630=DIRECTION('',(0.,1.,0.));
#1631=DIRECTION('center_axis',(0.,-1.,0.));
#1632=DIRECTION('ref_axis',(-1.,0.,0.));
#1633=DIRECTION('center_axis',(0.,1.,0.));
#1634=DIRECTION('ref_axis',(-1.,0.,0.));
#1635=DIRECTION('center_axis',(0.,1.,0.));
#1636=DIRECTION('ref_axis',(-1.,0.,0.));
#1637=DIRECTION('center_axis',(0.,-1.,0.));
#1638=DIRECTION('ref_axis',(-1.,0.,0.));
#1639=DIRECTION('',(0.,1.,0.));
#1640=DIRECTION('center_axis',(0.,-1.,0.));
#1641=DIRECTION('ref_axis',(-1.,0.,0.));
#1642=DIRECTION('center_axis',(0.,1.,0.));
#1643=DIRECTION('ref_axis',(-1.,0.,0.));
#1644=DIRECTION('center_axis',(0.,1.,0.));
#1645=DIRECTION('ref_axis',(-1.,0.,0.));
#1646=DIRECTION('center_axis',(0.,-1.,0.));
#1647=DIRECTION('ref_axis',(-1.,0.,0.));
#1648=DIRECTION('',(0.,1.,0.));
#1649=DIRECTION('center_axis',(0.,-1.,0.));
#1650=DIRECTION('ref_axis',(-1.,0.,0.));
#1651=DIRECTION('center_axis',(0.,1.,0.));
#1652=DIRECTION('ref_axis',(-1.,0.,0.));
#1653=DIRECTION('center_axis',(0.,1.,0.));
#1654=DIRECTION('ref_axis',(-1.,0.,0.));
#1655=DIRECTION('center_axis',(0.,-1.,0.));
#1656=DIRECTION('ref_axis',(-1.,0.,0.));
#1657=DIRECTION('',(0.,1.,0.));
#1658=DIRECTION('center_axis',(0.,-1.,0.));
#1659=DIRECTION('ref_axis',(-1.,0.,0.));
#1660=DIRECTION('center_axis',(0.,1.,0.));
#1661=DIRECTION('ref_axis',(-1.,0.,0.));
#1662=DIRECTION('center_axis',(0.,0.,-1.));
#1663=DIRECTION('ref_axis',(-1.,0.,0.));
#1664=DIRECTION('',(-1.,0.,0.));
#1665=DIRECTION('',(0.,-1.,0.));
#1666=DIRECTION('',(1.,0.,0.));
#1667=DIRECTION('',(0.,1.,0.));
#1668=DIRECTION('center_axis',(1.,0.,0.));
#1669=DIRECTION('ref_axis',(0.,0.,-1.));
#1670=DIRECTION('',(0.,0.,-1.));
#1671=DIRECTION('',(0.,-1.,0.));
#1672=DIRECTION('',(0.,0.,1.));
#1673=DIRECTION('center_axis',(0.,0.,1.));
#1674=DIRECTION('ref_axis',(1.,0.,0.));
#1675=DIRECTION('',(1.,0.,0.));
#1676=DIRECTION('',(0.,-1.,0.));
#1677=DIRECTION('',(-1.,0.,0.));
#1678=DIRECTION('center_axis',(-1.,0.,0.));
#1679=DIRECTION('ref_axis',(0.,0.,1.));
#1680=DIRECTION('',(0.,0.,1.));
#1681=DIRECTION('',(0.,0.,-1.));
#1682=DIRECTION('center_axis',(0.,1.,0.));
#1683=DIRECTION('ref_axis',(0.,0.,1.));
#1684=DIRECTION('center_axis',(0.,0.,-1.));
#1685=DIRECTION('ref_axis',(-1.,0.,0.));
#1686=DIRECTION('',(-1.,0.,0.));
#1687=DIRECTION('center_axis',(-1.,0.,0.));
#1688=DIRECTION('ref_axis',(0.,0.,1.));
#1689=DIRECTION('',(0.,0.,1.));
#1690=DIRECTION('center_axis',(0.,1.,0.));
#1691=DIRECTION('ref_axis',(1.,0.,0.));
#1692=CARTESIAN_POINT('',(0.,0.,0.));
#1693=CARTESIAN_POINT('Origin',(27.9,11.1,-3.9));
#1694=CARTESIAN_POINT('',(27.9,11.3,-6.2));
#1695=CARTESIAN_POINT('Origin',(27.9,11.3,-3.9));
#1696=CARTESIAN_POINT('',(27.9,11.1,-6.4));
#1697=CARTESIAN_POINT('Origin',(27.9,11.1,-6.2));
#1698=CARTESIAN_POINT('',(30.4,11.1,-3.9));
#1699=CARTESIAN_POINT('Origin',(27.9,11.1,-3.9));
#1700=CARTESIAN_POINT('Origin',(27.9,11.1,-3.9));
#1701=CARTESIAN_POINT('Origin',(27.9,9.6,-3.9));
#1702=CARTESIAN_POINT('',(30.4,9.6,-3.9));
#1703=CARTESIAN_POINT('',(30.4,9.6,-3.9));
#1704=CARTESIAN_POINT('Origin',(27.9,9.6,-3.9));
#1705=CARTESIAN_POINT('Origin',(27.9,11.3,-3.9));
#1706=CARTESIAN_POINT('Origin',(27.9,11.1,-11.9));
#1707=CARTESIAN_POINT('',(27.9,11.3,-14.2));
#1708=CARTESIAN_POINT('Origin',(27.9,11.3,-11.9));
#1709=CARTESIAN_POINT('',(27.9,11.1,-14.4));
#1710=CARTESIAN_POINT('Origin',(27.9,11.1,-14.2));
#1711=CARTESIAN_POINT('',(30.4,11.1,-11.9));
#1712=CARTESIAN_POINT('Origin',(27.9,11.1,-11.9));
#1713=CARTESIAN_POINT('Origin',(27.9,11.1,-11.9));
#1714=CARTESIAN_POINT('Origin',(27.9,9.6,-11.9));
#1715=CARTESIAN_POINT('',(30.4,9.6,-11.9));
#1716=CARTESIAN_POINT('',(30.4,9.6,-11.9));
#1717=CARTESIAN_POINT('Origin',(27.9,9.6,-11.9));
#1718=CARTESIAN_POINT('Origin',(27.9,11.3,-11.9));
#1719=CARTESIAN_POINT('Origin',(19.9,11.1,-11.9));
#1720=CARTESIAN_POINT('',(19.9,11.3,-14.2));
#1721=CARTESIAN_POINT('Origin',(19.9,11.3,-11.9));
#1722=CARTESIAN_POINT('',(19.9,11.1,-14.4));
#1723=CARTESIAN_POINT('Origin',(19.9,11.1,-14.2));
#1724=CARTESIAN_POINT('',(22.4,11.1,-11.9));
#1725=CARTESIAN_POINT('Origin',(19.9,11.1,-11.9));
#1726=CARTESIAN_POINT('Origin',(19.9,11.1,-11.9));
#1727=CARTESIAN_POINT('Origin',(19.9,9.6,-11.9));
#1728=CARTESIAN_POINT('',(22.4,9.6,-11.9));
#1729=CARTESIAN_POINT('',(22.4,9.6,-11.9));
#1730=CARTESIAN_POINT('Origin',(19.9,9.6,-11.9));
#1731=CARTESIAN_POINT('Origin',(19.9,11.3,-11.9));
#1732=CARTESIAN_POINT('Origin',(19.9,11.1,-3.9));
#1733=CARTESIAN_POINT('',(19.9,11.3,-6.2));
#1734=CARTESIAN_POINT('Origin',(19.9,11.3,-3.9));
#1735=CARTESIAN_POINT('',(19.9,11.1,-6.4));
#1736=CARTESIAN_POINT('Origin',(19.9,11.1,-6.2));
#1737=CARTESIAN_POINT('',(22.4,11.1,-3.9));
#1738=CARTESIAN_POINT('Origin',(19.9,11.1,-3.9));
#1739=CARTESIAN_POINT('Origin',(19.9,11.1,-3.9));
#1740=CARTESIAN_POINT('Origin',(19.9,9.6,-3.9));
#1741=CARTESIAN_POINT('',(22.4,9.6,-3.9));
#1742=CARTESIAN_POINT('',(22.4,9.6,-3.9));
#1743=CARTESIAN_POINT('Origin',(19.9,9.6,-3.9));
#1744=CARTESIAN_POINT('Origin',(19.9,11.3,-3.9));
#1745=CARTESIAN_POINT('Origin',(11.9,11.1,-3.9));
#1746=CARTESIAN_POINT('',(11.9,11.3,-6.2));
#1747=CARTESIAN_POINT('Origin',(11.9,11.3,-3.9));
#1748=CARTESIAN_POINT('',(11.9,11.1,-6.4));
#1749=CARTESIAN_POINT('Origin',(11.9,11.1,-6.2));
#1750=CARTESIAN_POINT('',(14.4,11.1,-3.9));
#1751=CARTESIAN_POINT('Origin',(11.9,11.1,-3.9));
#1752=CARTESIAN_POINT('Origin',(11.9,11.1,-3.9));
#1753=CARTESIAN_POINT('Origin',(11.9,9.6,-3.9));
#1754=CARTESIAN_POINT('',(14.4,9.6,-3.9));
#1755=CARTESIAN_POINT('',(14.4,9.6,-3.9));
#1756=CARTESIAN_POINT('Origin',(11.9,9.6,-3.9));
#1757=CARTESIAN_POINT('Origin',(11.9,11.3,-3.9));
#1758=CARTESIAN_POINT('Origin',(11.9,11.1,-11.9));
#1759=CARTESIAN_POINT('',(11.9,11.3,-14.2));
#1760=CARTESIAN_POINT('Origin',(11.9,11.3,-11.9));
#1761=CARTESIAN_POINT('',(11.9,11.1,-14.4));
#1762=CARTESIAN_POINT('Origin',(11.9,11.1,-14.2));
#1763=CARTESIAN_POINT('',(14.4,11.1,-11.9));
#1764=CARTESIAN_POINT('Origin',(11.9,11.1,-11.9));
#1765=CARTESIAN_POINT('Origin',(11.9,11.1,-11.9));
#1766=CARTESIAN_POINT('Origin',(11.9,9.6,-11.9));
#1767=CARTESIAN_POINT('',(14.4,9.6,-11.9));
#1768=CARTESIAN_POINT('',(14.4,9.6,-11.9));
#1769=CARTESIAN_POINT('Origin',(11.9,9.6,-11.9));
#1770=CARTESIAN_POINT('Origin',(11.9,11.3,-11.9));
#1771=CARTESIAN_POINT('Origin',(3.9,11.1,-11.9));
#1772=CARTESIAN_POINT('',(3.9,11.3,-14.2));
#1773=CARTESIAN_POINT('Origin',(3.9,11.3,-11.9));
#1774=CARTESIAN_POINT('',(3.9,11.1,-14.4));
#1775=CARTESIAN_POINT('Origin',(3.9,11.1,-14.2));
#1776=CARTESIAN_POINT('',(6.4,11.1,-11.9));
#1777=CARTESIAN_POINT('Origin',(3.9,11.1,-11.9));
#1778=CARTESIAN_POINT('Origin',(3.9,11.1,-11.9));
#1779=CARTESIAN_POINT('Origin',(3.9,9.6,-11.9));
#1780=CARTESIAN_POINT('',(6.4,9.6,-11.9));
#1781=CARTESIAN_POINT('',(6.4,9.6,-11.9));
#1782=CARTESIAN_POINT('Origin',(3.9,9.6,-11.9));
#1783=CARTESIAN_POINT('Origin',(3.9,11.3,-11.9));
#1784=CARTESIAN_POINT('Origin',(3.9,11.1,-3.9));
#1785=CARTESIAN_POINT('',(3.9,11.3,-6.2));
#1786=CARTESIAN_POINT('Origin',(3.9,11.3,-3.9));
#1787=CARTESIAN_POINT('',(3.9,11.1,-6.4));
#1788=CARTESIAN_POINT('Origin',(3.9,11.1,-6.2));
#1789=CARTESIAN_POINT('',(6.4,11.1,-3.9));
#1790=CARTESIAN_POINT('Origin',(3.9,11.1,-3.9));
#1791=CARTESIAN_POINT('Origin',(3.9,11.1,-3.9));
#1792=CARTESIAN_POINT('Origin',(3.9,9.6,-3.9));
#1793=CARTESIAN_POINT('',(6.4,9.6,-3.9));
#1794=CARTESIAN_POINT('',(6.4,9.6,-3.9));
#1795=CARTESIAN_POINT('Origin',(3.9,9.6,-3.9));
#1796=CARTESIAN_POINT('Origin',(3.9,11.3,-3.9));
#1797=CARTESIAN_POINT('Origin',(23.9,0.209999999999999,-7.9));
#1798=CARTESIAN_POINT('',(23.9,0.0099999999999989,-4.95));
#1799=CARTESIAN_POINT('Origin',(23.9,0.0099999999999989,-7.9));
#1800=CARTESIAN_POINT('',(23.9,0.209999999999999,-4.75));
#1801=CARTESIAN_POINT('Origin',(23.9,0.209999999999999,-4.95));
#1802=CARTESIAN_POINT('',(20.75,0.209999999999999,-7.9));
#1803=CARTESIAN_POINT('Origin',(23.9,0.209999999999999,-7.9));
#1804=CARTESIAN_POINT('Origin',(23.9,0.209999999999999,-7.9));
#1805=CARTESIAN_POINT('Origin',(23.9,8.11,-7.9));
#1806=CARTESIAN_POINT('',(20.75,8.11,-7.9));
#1807=CARTESIAN_POINT('',(20.75,8.11,-7.9));
#1808=CARTESIAN_POINT('Origin',(23.9,8.11,-7.9));
#1809=CARTESIAN_POINT('Origin',(23.9,0.0099999999999989,-7.9));
#1810=CARTESIAN_POINT('',(21.75,0.0099999999999989,-7.9));
#1811=CARTESIAN_POINT('Origin',(23.9,0.0099999999999989,-7.9));
#1812=CARTESIAN_POINT('Origin',(15.9,0.209999999999999,-7.9));
#1813=CARTESIAN_POINT('',(15.9,0.0099999999999989,-4.95));
#1814=CARTESIAN_POINT('Origin',(15.9,0.0099999999999989,-7.9));
#1815=CARTESIAN_POINT('',(15.9,0.209999999999999,-4.75));
#1816=CARTESIAN_POINT('Origin',(15.9,0.209999999999999,-4.95));
#1817=CARTESIAN_POINT('',(12.75,0.209999999999999,-7.9));
#1818=CARTESIAN_POINT('Origin',(15.9,0.209999999999999,-7.9));
#1819=CARTESIAN_POINT('Origin',(15.9,0.209999999999999,-7.9));
#1820=CARTESIAN_POINT('Origin',(15.9,8.11,-7.9));
#1821=CARTESIAN_POINT('',(12.75,8.11,-7.9));
#1822=CARTESIAN_POINT('',(12.75,8.11,-7.9));
#1823=CARTESIAN_POINT('Origin',(15.9,8.11,-7.9));
#1824=CARTESIAN_POINT('Origin',(15.9,0.0099999999999989,-7.9));
#1825=CARTESIAN_POINT('',(13.75,0.0099999999999989,-7.9));
#1826=CARTESIAN_POINT('Origin',(15.9,0.0099999999999989,-7.9));
#1827=CARTESIAN_POINT('Origin',(7.9,0.209999999999999,-7.9));
#1828=CARTESIAN_POINT('',(7.9,0.0099999999999989,-4.95));
#1829=CARTESIAN_POINT('Origin',(7.9,0.0099999999999989,-7.9));
#1830=CARTESIAN_POINT('',(7.9,0.209999999999999,-4.75));
#1831=CARTESIAN_POINT('Origin',(7.9,0.209999999999999,-4.95));
#1832=CARTESIAN_POINT('',(4.75,0.209999999999999,-7.9));
#1833=CARTESIAN_POINT('Origin',(7.9,0.209999999999999,-7.9));
#1834=CARTESIAN_POINT('Origin',(7.9,0.209999999999999,-7.9));
#1835=CARTESIAN_POINT('Origin',(7.9,8.11,-7.9));
#1836=CARTESIAN_POINT('',(4.75,8.11,-7.9));
#1837=CARTESIAN_POINT('',(4.75,8.11,-7.9));
#1838=CARTESIAN_POINT('Origin',(7.9,8.11,-7.9));
#1839=CARTESIAN_POINT('Origin',(7.9,0.0099999999999989,-7.9));
#1840=CARTESIAN_POINT('',(5.75,0.0099999999999989,-7.9));
#1841=CARTESIAN_POINT('Origin',(7.9,0.0099999999999989,-7.9));
#1842=CARTESIAN_POINT('Origin',(31.6,9.4,-15.6));
#1843=CARTESIAN_POINT('',(31.8,9.4,-15.6));
#1844=CARTESIAN_POINT('',(31.6,9.6,-15.6));
#1845=CARTESIAN_POINT('Origin',(31.6,9.4,-15.6));
#1846=CARTESIAN_POINT('',(31.6,9.4,-15.8));
#1847=CARTESIAN_POINT('Origin',(31.6,9.4,-15.6));
#1848=CARTESIAN_POINT('Origin',(31.6,9.4,-15.6));
#1849=CARTESIAN_POINT('Origin',(31.6,0.,-15.6));
#1850=CARTESIAN_POINT('',(31.8,0.,-15.6));
#1851=CARTESIAN_POINT('',(31.6,0.,-15.8));
#1852=CARTESIAN_POINT('Origin',(31.6,0.,-15.6));
#1853=CARTESIAN_POINT('',(31.6,0.,-15.8));
#1854=CARTESIAN_POINT('',(31.8,0.,-15.6));
#1855=CARTESIAN_POINT('Origin',(0.2,9.4,-15.6));
#1856=CARTESIAN_POINT('',(0.2,9.4,-15.8));
#1857=CARTESIAN_POINT('',(0.2,9.6,-15.6));
#1858=CARTESIAN_POINT('Origin',(0.2,9.4,-15.6));
#1859=CARTESIAN_POINT('',(0.,9.4,-15.6));
#1860=CARTESIAN_POINT('Origin',(0.2,9.4,-15.6));
#1861=CARTESIAN_POINT('Origin',(0.2,9.4,-15.6));
#1862=CARTESIAN_POINT('Origin',(0.2,0.,-15.6));
#1863=CARTESIAN_POINT('',(0.2,0.,-15.8));
#1864=CARTESIAN_POINT('',(0.,0.,-15.6));
#1865=CARTESIAN_POINT('Origin',(0.2,0.,-15.6));
#1866=CARTESIAN_POINT('',(0.,0.,-15.6));
#1867=CARTESIAN_POINT('',(0.2,0.,-15.8));
#1868=CARTESIAN_POINT('Origin',(31.6,9.4,-0.2));
#1869=CARTESIAN_POINT('',(31.6,9.4,0.));
#1870=CARTESIAN_POINT('',(31.6,9.6,-0.2));
#1871=CARTESIAN_POINT('Origin',(31.6,9.4,-0.2));
#1872=CARTESIAN_POINT('',(31.8,9.4,-0.2));
#1873=CARTESIAN_POINT('Origin',(31.6,9.4,-0.2));
#1874=CARTESIAN_POINT('Origin',(31.6,9.4,-0.2));
#1875=CARTESIAN_POINT('Origin',(31.6,0.,-0.2));
#1876=CARTESIAN_POINT('',(31.6,0.,0.));
#1877=CARTESIAN_POINT('',(31.8,0.,-0.2));
#1878=CARTESIAN_POINT('Origin',(31.6,0.,-0.2));
#1879=CARTESIAN_POINT('',(31.8,0.,-0.2));
#1880=CARTESIAN_POINT('',(31.6,0.,0.));
#1881=CARTESIAN_POINT('Origin',(31.6,9.4,-3.95));
#1882=CARTESIAN_POINT('',(31.6,9.6,-3.95));
#1883=CARTESIAN_POINT('',(31.8,9.4,-3.95));
#1884=CARTESIAN_POINT('Origin',(0.2,9.4,-0.2));
#1885=CARTESIAN_POINT('',(0.,9.4,-0.2));
#1886=CARTESIAN_POINT('',(0.2,9.6,-0.2));
#1887=CARTESIAN_POINT('Origin',(0.2,9.4,-0.2));
#1888=CARTESIAN_POINT('',(0.2,9.4,0.));
#1889=CARTESIAN_POINT('Origin',(0.2,9.4,-0.2));
#1890=CARTESIAN_POINT('Origin',(0.2,9.4,-0.2));
#1891=CARTESIAN_POINT('Origin',(0.2,0.,-0.2));
#1892=CARTESIAN_POINT('',(0.,0.,-0.2));
#1893=CARTESIAN_POINT('',(0.2,0.,0.));
#1894=CARTESIAN_POINT('Origin',(0.2,0.,-0.2));
#1895=CARTESIAN_POINT('',(0.2,0.,0.));
#1896=CARTESIAN_POINT('',(0.,0.,-0.2));
#1897=CARTESIAN_POINT('Origin',(7.95,9.4,-0.2));
#1898=CARTESIAN_POINT('',(7.95,9.6,-0.2));
#1899=CARTESIAN_POINT('',(7.95,9.4,0.));
#1900=CARTESIAN_POINT('Origin',(0.2,9.4,-11.85));
#1901=CARTESIAN_POINT('',(0.2,9.6,-11.85));
#1902=CARTESIAN_POINT('',(0.,9.4,-11.85));
#1903=CARTESIAN_POINT('Origin',(23.85,9.4,-15.6));
#1904=CARTESIAN_POINT('',(23.85,9.6,-15.6));
#1905=CARTESIAN_POINT('',(23.85,9.4,-15.8));
#1906=CARTESIAN_POINT('Origin',(31.8,0.,0.));
#1907=CARTESIAN_POINT('',(31.8,0.,0.));
#1908=CARTESIAN_POINT('Origin',(0.,0.,0.));
#1909=CARTESIAN_POINT('',(0.,0.,0.));
#1910=CARTESIAN_POINT('Origin',(15.9,9.6,-7.9));
#1911=CARTESIAN_POINT('Origin',(23.9,8.11,-7.9));
#1912=CARTESIAN_POINT('',(21.75,8.11,-7.9));
#1913=CARTESIAN_POINT('',(21.75,8.11,-7.9));
#1914=CARTESIAN_POINT('Origin',(23.9,8.11,-7.9));
#1915=CARTESIAN_POINT('Origin',(15.9,8.11,-7.9));
#1916=CARTESIAN_POINT('Origin',(15.9,8.11,-7.9));
#1917=CARTESIAN_POINT('',(13.75,8.11,-7.9));
#1918=CARTESIAN_POINT('',(13.75,8.11,-7.9));
#1919=CARTESIAN_POINT('Origin',(15.9,8.11,-7.9));
#1920=CARTESIAN_POINT('Origin',(15.9,8.11,-7.9));
#1921=CARTESIAN_POINT('Origin',(7.9,8.11,-7.9));
#1922=CARTESIAN_POINT('',(5.75,8.11,-7.9));
#1923=CARTESIAN_POINT('',(5.75,8.11,-7.9));
#1924=CARTESIAN_POINT('Origin',(7.9,8.11,-7.9));
#1925=CARTESIAN_POINT('Origin',(15.9,8.11,-7.9));
#1926=CARTESIAN_POINT('Origin',(27.9,9.6,-3.9));
#1927=CARTESIAN_POINT('',(28.91,8.11,-3.9));
#1928=CARTESIAN_POINT('Origin',(27.9,8.11,-3.9));
#1929=CARTESIAN_POINT('',(28.91,9.81,-3.9));
#1930=CARTESIAN_POINT('',(28.91,9.6,-3.9));
#1931=CARTESIAN_POINT('Origin',(27.9,9.81,-3.9));
#1932=CARTESIAN_POINT('Origin',(27.9,9.81,-3.9));
#1933=CARTESIAN_POINT('Origin',(19.9,9.6,-3.9));
#1934=CARTESIAN_POINT('',(20.91,8.11,-3.9));
#1935=CARTESIAN_POINT('Origin',(19.9,8.11,-3.9));
#1936=CARTESIAN_POINT('',(20.91,9.81,-3.9));
#1937=CARTESIAN_POINT('',(20.91,9.6,-3.9));
#1938=CARTESIAN_POINT('Origin',(19.9,9.81,-3.9));
#1939=CARTESIAN_POINT('Origin',(19.9,9.81,-3.9));
#1940=CARTESIAN_POINT('Origin',(11.9,9.6,-3.9));
#1941=CARTESIAN_POINT('',(12.91,8.11,-3.9));
#1942=CARTESIAN_POINT('Origin',(11.9,8.11,-3.9));
#1943=CARTESIAN_POINT('',(12.91,9.81,-3.9));
#1944=CARTESIAN_POINT('',(12.91,9.6,-3.9));
#1945=CARTESIAN_POINT('Origin',(11.9,9.81,-3.9));
#1946=CARTESIAN_POINT('Origin',(11.9,9.81,-3.9));
#1947=CARTESIAN_POINT('Origin',(3.9,9.6,-3.9));
#1948=CARTESIAN_POINT('',(4.91,8.11,-3.9));
#1949=CARTESIAN_POINT('Origin',(3.9,8.11,-3.9));
#1950=CARTESIAN_POINT('',(4.91,9.81,-3.9));
#1951=CARTESIAN_POINT('',(4.91,9.6,-3.9));
#1952=CARTESIAN_POINT('Origin',(3.9,9.81,-3.9));
#1953=CARTESIAN_POINT('Origin',(3.9,9.81,-3.9));
#1954=CARTESIAN_POINT('Origin',(27.9,9.6,-11.9));
#1955=CARTESIAN_POINT('',(28.91,8.11,-11.9));
#1956=CARTESIAN_POINT('Origin',(27.9,8.11,-11.9));
#1957=CARTESIAN_POINT('',(28.91,9.81,-11.9));
#1958=CARTESIAN_POINT('',(28.91,9.6,-11.9));
#1959=CARTESIAN_POINT('Origin',(27.9,9.81,-11.9));
#1960=CARTESIAN_POINT('Origin',(27.9,9.81,-11.9));
#1961=CARTESIAN_POINT('Origin',(19.9,9.6,-11.9));
#1962=CARTESIAN_POINT('',(20.91,8.11,-11.9));
#1963=CARTESIAN_POINT('Origin',(19.9,8.11,-11.9));
#1964=CARTESIAN_POINT('',(20.91,9.81,-11.9));
#1965=CARTESIAN_POINT('',(20.91,9.6,-11.9));
#1966=CARTESIAN_POINT('Origin',(19.9,9.81,-11.9));
#1967=CARTESIAN_POINT('Origin',(19.9,9.81,-11.9));
#1968=CARTESIAN_POINT('Origin',(11.9,9.6,-11.9));
#1969=CARTESIAN_POINT('',(12.91,8.11,-11.9));
#1970=CARTESIAN_POINT('Origin',(11.9,8.11,-11.9));
#1971=CARTESIAN_POINT('',(12.91,9.81,-11.9));
#1972=CARTESIAN_POINT('',(12.91,9.6,-11.9));
#1973=CARTESIAN_POINT('Origin',(11.9,9.81,-11.9));
#1974=CARTESIAN_POINT('Origin',(11.9,9.81,-11.9));
#1975=CARTESIAN_POINT('Origin',(3.9,9.6,-11.9));
#1976=CARTESIAN_POINT('',(4.91,8.11,-11.9));
#1977=CARTESIAN_POINT('Origin',(3.9,8.11,-11.9));
#1978=CARTESIAN_POINT('',(4.91,9.81,-11.9));
#1979=CARTESIAN_POINT('',(4.91,9.6,-11.9));
#1980=CARTESIAN_POINT('Origin',(3.9,9.81,-11.9));
#1981=CARTESIAN_POINT('Origin',(3.9,9.81,-11.9));
#1982=CARTESIAN_POINT('Origin',(31.8,0.,-14.31));
#1983=CARTESIAN_POINT('',(30.31,0.,-14.31));
#1984=CARTESIAN_POINT('',(1.49,0.,-14.31));
#1985=CARTESIAN_POINT('',(23.85,0.,-14.31));
#1986=CARTESIAN_POINT('',(30.31,8.11,-14.31));
#1987=CARTESIAN_POINT('',(30.31,0.,-14.31));
#1988=CARTESIAN_POINT('',(1.49,8.11,-14.31));
#1989=CARTESIAN_POINT('',(23.85,8.11,-14.31));
#1990=CARTESIAN_POINT('',(1.49,0.,-14.31));
#1991=CARTESIAN_POINT('Origin',(30.31,0.,0.));
#1992=CARTESIAN_POINT('',(30.31,0.,-1.49));
#1993=CARTESIAN_POINT('',(30.31,0.,-3.95));
#1994=CARTESIAN_POINT('',(30.31,8.11,-1.49));
#1995=CARTESIAN_POINT('',(30.31,0.,-1.49));
#1996=CARTESIAN_POINT('',(30.31,8.11,-3.95));
#1997=CARTESIAN_POINT('Origin',(0.,0.,-1.49));
#1998=CARTESIAN_POINT('',(1.49,0.,-1.49));
#1999=CARTESIAN_POINT('',(7.95,0.,-1.49));
#2000=CARTESIAN_POINT('',(1.49,8.11,-1.49));
#2001=CARTESIAN_POINT('',(1.49,0.,-1.49));
#2002=CARTESIAN_POINT('',(7.95,8.11,-1.49));
#2003=CARTESIAN_POINT('Origin',(1.49,0.,-15.8));
#2004=CARTESIAN_POINT('',(1.49,0.,-11.85));
#2005=CARTESIAN_POINT('',(1.49,8.11,-11.85));
#2006=CARTESIAN_POINT('Origin',(15.9,8.11,-7.9));
#2007=CARTESIAN_POINT('Origin',(31.8,0.,-15.8));
#2008=CARTESIAN_POINT('',(31.8,0.,-15.8));
#2009=CARTESIAN_POINT('Origin',(0.,0.,-15.8));
#2010=CARTESIAN_POINT('',(0.,0.,-15.8));
#2011=CARTESIAN_POINT('Origin',(15.9,0.,-7.9));
#2012=UNCERTAINTY_MEASURE_WITH_UNIT(LENGTH_MEASURE(0.01),#2016,
'DISTANCE_ACCURACY_VALUE',
'Maximum model space distance between geometric entities at asserted c
onnectivities');
#2013=UNCERTAINTY_MEASURE_WITH_UNIT(LENGTH_MEASURE(0.01),#2016,
'DISTANCE_ACCURACY_VALUE',
'Maximum model space distance between geometric entities at asserted c
onnectivities');
#2014=(
GEOMETRIC_REPRESENTATION_CONTEXT(3)
GLOBAL_UNCERTAINTY_ASSIGNED_CONTEXT((#2012))
GLOBAL_UNIT_ASSIGNED_CONTEXT((#2016,#2018,#2019))
REPRESENTATION_CONTEXT('','3D')
);
#2015=(
GEOMETRIC_REPRESENTATION_CONTEXT(3)
GLOBAL_UNCERTAINTY_ASSIGNED_CONTEXT((#2013))
GLOBAL_UNIT_ASSIGNED_CONTEXT((#2016,#2018,#2019))
REPRESENTATION_CONTEXT('','3D')
);
#2016=(
LENGTH_UNIT()
NAMED_UNIT(*)
SI_UNIT(.MILLI.,.METRE.)
);
#2017=(
LENGTH_UNIT()
NAMED_UNIT(*)
SI_UNIT($,.METRE.)
);
#2018=(
NAMED_UNIT(*)
PLANE_ANGLE_UNIT()
SI_UNIT($,.RADIAN.)
);
#2019=(
NAMED_UNIT(*)
SI_UNIT($,.STERADIAN.)
SOLID_ANGLE_UNIT()
);
#2020=SHAPE_DEFINITION_REPRESENTATION(#2021,#2022);
#2021=PRODUCT_DEFINITION_SHAPE('',$,#2024);
#2022=SHAPE_REPRESENTATION('',(#1122),#2014);
#2023=PRODUCT_DEFINITION_CONTEXT('part definition',#2028,'design');
#2024=PRODUCT_DEFINITION('2026-08-24-01-20-26-129','project_01',#2025,#2023);
#2025=PRODUCT_DEFINITION_FORMATION('',$,#2030);
#2026=PRODUCT_RELATED_PRODUCT_CATEGORY('project_01','project_01',(#2030));
#2027=APPLICATION_PROTOCOL_DEFINITION('international standard',
'automotive_design',2009,#2028);
#2028=APPLICATION_CONTEXT(
'Core Data for Automotive Mechanical Design Process');
#2029=PRODUCT_CONTEXT('part definition',#2028,'mechanical');
#2030=PRODUCT('2026-08-24-01-20-26-129','project_01',$,(#2029));
#2031=PRESENTATION_STYLE_ASSIGNMENT((#2032));
#2032=SURFACE_STYLE_USAGE(.BOTH.,#2033);
#2033=SURFACE_SIDE_STYLE('',(#2034));
#2034=SURFACE_STYLE_FILL_AREA(#2035);
#2035=FILL_AREA_STYLE('Steel - Satin',(#2036));
#2036=FILL_AREA_STYLE_COLOUR('Steel - Satin',#2037);
#2037=COLOUR_RGB('Steel - Satin',0.627450980392157,0.627450980392157,0.627450980392157);
ENDSEC;
END-ISO-10303-21;
